<svg width="680" height="531" viewBox="0 0 680 531" fill="none" xmlns="http://www.w3.org/2000/svg">
<path fill-rule="evenodd" clip-rule="evenodd" d="M169.873 295.346C173.744 324.378 177.615 353.411 181.486 382.443L184.612 405.888C185.007 408.847 184.634 414.682 186.137 417.331C186.668 418.265 188.064 418.709 189.09 419.259C192.622 421.156 196.155 423.052 199.687 424.949C229.566 440.99 259.445 457.032 289.323 473.074C317.998 488.468 346.673 503.864 375.348 519.259C378.315 520.853 383.115 525.01 386.318 523.914C389.363 522.873 392.475 520.305 395.24 518.686C400.547 515.576 405.853 512.466 411.16 509.356C443.271 490.538 475.381 471.719 507.492 452.9C520.741 445.137 533.989 437.373 547.237 429.608C550.861 427.484 554.487 425.36 558.112 423.235C560.008 422.124 560.254 422.163 561.001 420.277C563.79 413.227 565.082 405.151 567.056 397.836C569.232 389.774 571.407 381.712 573.583 373.651C574.553 370.053 574.098 369.589 572.515 366.117C569.384 359.244 566.254 352.371 563.123 345.499C556.174 330.245 549.226 314.992 542.276 299.738C539.466 293.57 532.697 289.229 527.824 284.692L452.162 214.249C450.24 212.459 448.318 210.671 446.397 208.881C446.08 219.635 443.955 231.196 447.072 241.585C452.187 258.634 457.302 275.683 462.416 292.732C464.889 300.973 467.36 309.213 469.833 317.454C470.292 318.985 473.088 325.056 472.341 326.403C471.927 327.149 468.395 327.904 467.629 328.195C464.343 329.445 461.056 330.696 457.769 331.946C448.612 335.43 439.455 338.914 430.298 342.397C422.062 345.531 413.826 348.664 405.589 351.797C402.796 352.86 399.516 354.828 396.567 354.664C393.928 354.517 390.928 353.211 388.375 352.553C383.886 351.397 379.396 350.241 374.907 349.084C366.09 346.813 357.271 344.542 348.453 342.271C338.533 339.715 330.155 332.21 321.67 326.655C307.087 317.106 292.504 307.557 277.922 298.01C274.583 295.824 274.571 294.576 273.241 290.585C270.251 281.616 267.261 272.646 264.271 263.677C262.675 258.888 260.711 254.078 259.506 249.175C257.517 241.083 256.337 232.707 254.762 224.525C254.288 222.057 253.812 219.588 253.337 217.119C247.23 219.598 241.123 222.077 235.015 224.555C234.13 224.914 229.816 225.985 229.433 226.866C229.19 227.422 230.473 229.946 230.657 230.489C235.721 245.487 240.784 260.485 245.849 275.482C247.442 280.2 249.034 284.918 250.628 289.636C246.821 283.654 243.015 277.672 239.208 271.69C236.217 281.75 233.226 291.811 230.235 301.871C223.166 293.714 216.096 285.557 209.027 277.4C206.58 285.557 204.132 293.714 201.685 301.871C194.072 291.811 186.459 281.75 178.846 271.69C177.941 276.94 177.036 282.19 176.13 287.44C175.857 289.025 175.911 293.571 174.857 294.825C173.988 295.858 171.487 295.346 169.873 295.346Z" fill="#FBFBFB"/>
<path fill-rule="evenodd" clip-rule="evenodd" d="M651.9 358.102C651.472 371.768 651.769 389.509 644.29 401.525C643.083 403.464 638.993 409.505 638.537 404.191C638.089 398.973 639.373 393.807 638.101 388.529C637.421 385.705 635.133 379.537 631.221 382.088C629.229 383.388 628.703 386.598 627.924 388.624C626.77 391.622 625.478 394.572 624.263 397.547C620.022 407.932 615.627 420.325 606.198 427.197C607.432 418.242 610.795 408.68 608.534 399.628C607.764 396.543 605.43 390.91 601.411 392.718C597.494 394.479 594.955 402.337 593.107 405.837C587.502 416.447 581.77 426.857 575.461 437.07C572.287 442.207 568.859 446.903 564.706 451.297C562.11 454.046 558.872 458.691 554.78 459.101C554.78 451.267 557.358 443.699 559.711 436.323C562.242 428.391 564.55 420.391 567.034 412.445C569.19 405.551 570.959 398.711 572.394 391.642C572.988 388.718 573.458 385.691 575.95 383.803C578.19 382.106 581.729 381.299 584.226 380.052C590.784 376.775 597.53 373.24 603.622 369.167C606.124 367.495 608.277 365.335 610.896 363.835C613.881 362.126 616.668 360.688 619.429 358.605C631.343 349.618 642.083 338.564 649.32 325.405C650.495 330.692 652.051 335.857 652.223 341.307C652.399 346.895 652.076 352.517 651.9 358.102ZM553.845 420.918C551.94 417.7 549.037 419.019 546.479 420.57C542.509 422.977 538.53 425.367 534.54 427.744C526.421 432.581 518.453 437.671 510.521 442.807C494.374 453.259 477.664 461.813 460.641 470.66C444.189 479.209 428.386 489.384 412.971 499.668C409.266 502.14 405.587 504.669 402.03 507.35C398.872 509.729 396.347 513.07 393.023 515.188C389.561 517.394 387.181 515.605 383.87 513.978C379.73 511.944 375.415 510.239 371.182 508.404C354.102 500.999 336.973 493.313 320.358 484.908C303.843 476.555 288.196 466.93 272.372 457.37C264.836 452.818 257.428 447.977 249.995 443.257C242.084 438.235 233.893 434.473 225.595 430.203C221.924 428.313 218.672 425.747 214.901 424.029C210.936 422.224 206.748 420.929 203.198 418.324C201.607 417.156 200.264 415.761 198.445 414.934C196.952 414.256 195.257 414.142 193.782 413.422C190.782 411.957 189.923 408.984 189.342 405.891C185.605 386.04 183.619 365.638 181.453 345.565C180.236 334.277 178.878 323.034 177.196 311.806C176.438 306.743 177.963 302.821 178.764 297.897C179.699 292.146 180.068 286.273 180.695 280.483C183.651 285.959 186.207 291.707 189.969 296.704C192.741 300.387 197.477 305.61 202.583 305.487C210.518 305.295 210.155 291.685 210.475 286.283C214.089 289.509 215.185 294.765 218.185 298.512C220.925 301.933 224.652 306.178 228.859 307.71C237.716 310.936 236.863 294.496 236.376 289.833C236.132 287.494 234.811 283.794 237.944 284.86C240.829 285.843 243.637 289.914 246.062 291.781C250.254 295.009 254.852 297.692 259.153 300.774C264.488 304.598 270.245 307.362 275.685 310.923C279.088 313.151 282.799 313.651 286.508 315.289C291.942 317.689 296.743 321.267 301.915 324.145C312.158 329.841 323.521 334.949 334.724 338.383C338.349 339.494 343.18 342.626 345.93 339.407C347.623 337.427 348.736 334.401 350.173 332.181C351.991 329.37 353.922 326.634 355.927 323.952C363.055 314.424 370.964 305.427 379.749 297.39C389.969 288.042 401.144 279.629 413.097 272.622C418.233 269.611 439.678 256.117 444.392 265.614C440.518 265.372 437.16 266.789 433.848 268.564C433.04 268.997 428.87 271.974 429.846 269.35C428.635 269.577 427.573 271.156 426.656 271.858C425.071 273.072 422.667 274.473 420.832 275.478C419.018 276.471 416.776 276.714 415.123 277.918C414.519 278.358 414.153 279.071 413.577 279.546L411.926 279.559C411.679 280.474 411.432 281.387 411.184 282.302C410.251 279.31 408.92 283.201 407.361 284.464C406.424 285.223 404.94 286.006 403.837 286.496C403.012 286.862 402.885 286.011 402.084 286.658C401.372 287.233 400.919 288.5 400.154 289.221C399.215 290.104 398.013 290.79 396.967 291.544C394.962 292.987 392.841 294.121 390.81 295.49C388.077 297.332 386.644 300.499 383.991 302.425C382.734 303.337 380.782 303.444 380.102 304.028C378.396 305.495 378.958 307.717 375.777 307.814C376.067 308.278 376.24 308.78 376.3 309.323C375.542 309.192 374.868 308.878 374.279 308.38C374.411 311.553 371.291 312.686 369.42 314.639C368.342 315.765 366.998 317.348 366.238 318.703C366.112 318.93 365.87 320.738 365.818 320.763C365.529 320.902 363.772 319.357 363.938 319.486C363.448 322.418 360.611 325.19 359.368 327.904C358.714 329.334 358.049 331.632 356.76 332.638C356.409 332.911 355.33 332.626 354.438 333.576C353.784 334.273 353.03 335.561 352.764 336.485C352.587 337.102 352.799 338.699 352.545 339.07C352.078 339.747 351.352 339.066 350.622 339.567C349.271 340.492 349.237 341.938 347.26 342.128C348.622 345.438 356.848 346.458 359.837 347.4C368.292 350.061 377.162 352.718 385.065 356.793C387.11 357.847 389.044 358.716 389.406 361.144C389.911 364.523 388.189 369.016 387.86 372.429C386.97 381.645 386.788 391.134 386.974 400.39C387.15 409.157 387.434 418.006 387.843 426.763C388.221 434.882 389.859 442.84 390.742 450.901C390.984 453.114 390.823 463.092 394.627 462.589C397.804 462.17 395.798 455.355 395.738 453.401C395.605 449.077 396.516 444.663 396.477 440.3C396.459 438.203 397.376 436.396 397.464 434.39C397.551 432.407 396.566 430.84 396.861 428.784C397.145 426.812 402.976 415.467 397.376 416.796C397.704 415.174 397.991 413.539 398.424 411.941C399.023 412.479 399.506 413.108 399.87 413.826C400.368 410.341 400.202 406.863 400.511 403.377C400.65 401.797 401.29 400.066 401.071 398.474C401.113 397.814 401.029 397.167 400.82 396.532C400.476 396.167 400.049 395.976 399.543 395.957C399.276 395.085 399.207 394.845 399.68 393.989C399.884 393.41 400.287 393.047 400.889 392.904C402.038 392.768 402.169 392.108 401.283 390.924C401.745 388.588 401.805 387.113 401.471 384.782C401.19 382.823 402.222 379.031 401.171 377.287C399.943 375.249 399.333 377.226 399.105 374.4C399.056 373.802 399.017 372.556 399.257 371.96C399.521 371.31 400.313 371.576 400.414 371.346C401.101 369.775 401.147 366.684 398.714 366.952C398.809 365.831 398.905 364.709 398.999 363.587C400.757 365.611 400.143 363.898 401.14 362.773C402.482 361.258 403.796 360.997 405.715 360.397C410.83 358.802 415.759 356.401 420.757 354.453C431.342 350.328 442.123 346.645 452.398 341.771C474.008 331.516 495.19 320.388 516.932 310.404C515.379 307.522 516.345 307.381 517.48 304.675C518.996 305.727 518.677 304.993 519.755 304.928C519.657 304.025 519.938 303.753 520.597 304.111C521.122 304.272 521.659 304.329 522.211 304.282C523.557 304.512 524.656 305.253 525.88 305.535C526.281 305.831 526.722 306.052 527.204 306.202C527.636 306.103 528.005 305.889 528.31 305.56C530.29 305.927 530.957 307.419 531.045 309.579C531.059 309.955 529.909 310.34 530.239 310.845C530.814 311.727 532.362 311.517 533.248 311.629C533.054 312.546 532.86 313.462 532.666 314.378C536.553 312.585 535.539 318.199 536.718 320.043C537.047 320.558 537.778 320.147 538.159 320.743C538.655 321.521 538.506 322.623 538.929 323.398C539.886 325.151 540.844 324.938 541.797 326.946C546.781 337.427 553.41 347.192 558.193 357.898C560.47 362.994 562.524 368.177 564.902 373.227C567.09 377.876 568.34 381.828 566.781 386.904C563.164 398.681 559.296 410.671 554.556 422.046C554.319 421.67 554.083 421.294 553.845 420.918ZM301.554 508.82C301.214 509.398 300.875 509.975 300.536 510.554C299.782 506.218 301.79 508.229 301.554 508.82ZM285.6 500.702C284.513 500.377 284.983 498.601 285.018 497.842C285.705 498.699 286.38 499.573 286.953 500.514C286.501 500.577 286.05 500.64 285.6 500.702ZM241.876 484.036C243.018 483.396 243.839 482.936 245.134 482.21C243.818 484.774 243.818 484.774 241.876 484.036ZM173.088 258.137C171.344 262.42 176.664 288.862 171.711 289.725C171 287.404 170.911 281.014 167.971 280.251C164.322 279.304 164.682 285.883 164.183 287.917C156.693 282.705 153.365 272.641 149.787 264.665C145.226 254.499 141.636 243.925 138.209 233.332C135.278 224.276 132.855 215.059 129.893 206.017C128.032 200.338 126.026 194.645 124.775 188.792C124.503 187.52 123.434 184.296 124.343 183.087C125.663 181.329 130.417 183.342 131.949 183.804C141.887 186.794 152.196 188.081 162.406 189.819C173.75 191.748 185.069 193.742 196.481 195.238C199.333 195.612 202.186 195.966 205.041 196.31C206.893 196.534 209.696 196.31 211.454 197.14C215.014 198.82 215.772 205.248 217.094 208.582C222.027 221.023 227.832 233.071 233.026 245.4C237.704 256.506 241.251 268.321 247.977 278.434C242.961 276.21 236.604 264.454 230.999 271.23C228.59 274.144 229.197 277.982 229.39 281.47C229.669 286.511 229.756 291.589 229.756 296.638C224.271 295.213 220.586 288.987 217.707 284.577C213.773 278.553 211.296 272.876 209.554 265.97C208.8 262.98 206.8 262.906 205.022 261.116C203.88 259.966 203.306 258.416 201.668 260.089C199.609 262.192 200.979 268.015 201.335 270.498C202.179 276.407 204.948 285.499 202.256 291.051C198.623 298.543 188.888 279.691 187.747 276.969C187.167 275.583 176.81 249.003 173.088 258.137ZM166.287 129.737C166.9 129.831 167.513 129.925 168.126 130.019C167.632 130.455 166.604 131.985 165.763 131.581C165.938 130.966 166.112 130.352 166.287 129.737ZM198.777 122.765C198.585 122.977 198.392 123.187 198.199 123.398C197.32 122.299 197.631 120.696 197.631 119.424C198.794 120.127 199.078 121.531 198.777 122.765ZM201.402 134.965V138.559C198.967 137.503 198.918 136.959 201.402 134.965ZM204.36 139.535C202.654 139.066 202.45 138.689 202.689 136.066C203.397 137.535 203.862 138.504 204.36 139.535ZM214.183 166.151C213.467 167.991 209.287 163.606 209.44 162.294C209.586 161.041 210.228 160.668 211.114 161.473C211.407 161.74 210.972 162.703 211.159 163.037C211.834 164.248 213.193 165.238 214.183 166.151ZM214.229 177.238C213.182 179.853 211.315 175.735 214.051 175.622C214.231 176.148 214.29 176.687 214.229 177.238ZM212.197 173.115C211.792 172.574 211.398 172.026 211.015 171.468C212.425 171.752 213.544 173.806 215.031 172.436C214.855 174.526 213.37 174.584 212.197 173.115ZM121.046 139.145C118.78 136.671 133.561 134.935 135.344 134.51C148.284 131.424 160.502 126.959 172.601 121.48C178.373 118.866 184.116 116.221 189.752 113.324C192.186 112.073 195.523 111.013 197.555 109.135C199.007 107.795 198.949 106.781 200.835 105.982C202.436 105.306 202.516 105.945 203.249 104.721C203.69 103.987 204.188 101.297 203.93 100.501C203.228 98.3285 202.189 100.09 200.732 98.5927C199.682 97.5136 199.936 94.4449 200.223 93.174C200.595 93.7793 200.808 94.4367 200.866 95.1448C202.447 94.365 201.809 91.687 203.539 91.2481C205.363 90.7864 205.174 92.2066 205.65 93.6585C207.027 91.6356 205.923 89.9104 205.177 87.9347C208.968 87.2251 213.041 86.5374 216.798 87.7985C219.515 88.7097 221.841 90.9504 224.709 91.3835C227.519 91.8069 228.059 90.4749 230.13 89.1232C231.811 88.0261 233.255 89.3182 234.12 88.4894C233.587 91.2873 229 90.9047 229.565 94.4008C229.819 95.9743 231.747 97.3879 232.625 98.6123C233.727 100.149 234.606 101.848 235.356 103.58C238.275 110.316 239.523 118.133 240.749 125.336C243.772 143.117 244.154 161.249 246.998 179.086C248.353 187.583 249.711 196.084 250.415 204.664C250.591 206.809 251.901 211.675 250.829 213.738C249.923 215.481 247.906 215.486 246.136 215.907C242.673 216.73 239.421 217.849 236.098 219.088C233.12 220.198 232.255 220.879 230.343 218.077C228.493 215.366 227.579 212.134 226.256 209.161C224.571 205.374 222.535 201.72 220.58 198.066C224.42 198.066 226.63 195.994 226.528 192.092C226.417 187.77 222.863 186.745 221.398 183.194C219.973 185.044 219.853 185.097 218.837 183.34C217.676 181.33 216.892 177.654 216.181 175.375C216.689 175.917 217.198 176.46 217.706 177.002C218.987 175.238 216.98 172.458 216.309 170.797C215.273 168.233 215.09 165.46 214.107 162.903C213.571 161.507 212.329 160.408 212.025 158.952C211.822 157.978 212.636 157.05 212.443 156.061C212.107 154.338 210.158 152.49 209.552 150.737C208.62 148.042 207.607 145.669 206.451 143.044C204.885 139.49 205.249 135.76 204.963 131.978C204.666 128.056 203.41 124.304 202.966 120.399C202.659 117.701 203.619 114.305 201.579 112.144C201.34 115.736 202.369 115.68 198.994 116.326C195.152 117.061 192.366 119.923 188.734 120.777C187.985 120.954 187.439 117.683 187.731 122.145C185.989 120.858 182.27 122.455 183.657 123.219C182.606 124.344 180.535 123.566 180.189 125.251C176.615 121.777 170.885 133.602 166.63 127.434C165.927 131.614 162.9 134.086 158.836 134.639C156.793 134.916 155.534 135.597 153.72 136.21C153.352 136.333 153.217 136.862 152.781 137.005C152.116 137.222 151.139 136.567 150.659 136.694C149.683 136.954 148.597 138.238 147.234 138.494C145.671 138.787 143.966 138.652 142.402 138.471C140.446 138.244 139.585 138.012 137.67 138.657C135.947 139.237 134.102 140.861 132.503 139.092C129.991 143.438 124.003 142.376 121.046 139.145ZM237.157 86.7096C235.257 86.482 236.576 84.8473 237.456 84.3562C239.848 83.0234 239.209 86.9559 237.157 86.7096ZM131.915 102.303C143.07 86.2087 162.151 75.151 178.94 65.8471C188.11 60.7653 197.471 55.8392 207.099 51.68C211.887 49.613 216.729 47.6259 221.618 45.8101C224.228 44.8403 226.87 43.9585 229.514 43.0808C230.245 42.8385 231.574 42.0946 232.34 42.1672C232.207 42.1542 234.241 42.7072 233.841 42.8809C235.151 42.3108 235.774 40.8237 237.315 40.2291C239.045 39.5602 241.25 39.2837 243.104 39.2233C244.745 39.1695 246.165 39.8473 247.728 39.9004C248.755 39.9346 249.628 39.4468 250.633 39.375C251.148 39.3392 251.102 40.1092 251.412 40.154C251.547 40.1736 252.917 39.6589 252.93 39.6679C253.43 39.9885 253.872 41.2397 254.323 41.7284C255.616 43.1297 257.515 44.1061 259.241 44.8435C261.34 45.7408 266.462 46.643 264.088 49.9629C265.774 49.7206 266.559 51.2444 264.448 51.6302C263.305 51.8398 262.816 50.7925 261.967 50.0779C260.005 48.4302 255.243 46.0842 252.417 46.1903C250.827 46.2498 249.599 47.4562 248.133 47.8943C246.69 48.325 245.976 47.6569 244.71 47.7629C243.23 47.8861 242.277 49.1382 240.867 49.3609C239.546 49.5697 238.811 48.6692 237.63 48.732C236.227 48.8062 234.868 50.0249 233.529 50.4344C231.398 51.0853 229.834 51.529 227.754 52.6082C223.722 54.7005 219.221 55.495 215.066 57.2961C211.745 58.7358 207.979 59.4936 204.905 61.0858C201.487 62.8551 198.054 64.6178 194.707 66.5405C192.289 67.9296 187.374 68.4076 184.708 68.0544C184.67 72.9633 182.254 69.5219 179.819 71.6721C180.395 72.1802 181.049 72.5538 181.779 72.7928C179.14 73.8467 176.701 75.1584 174.145 76.3697C171.503 77.6226 168.684 77.8983 166.948 80.2679C165.349 82.4516 165.891 81.3251 163.505 82.1849C162.41 82.5797 161.458 83.7836 160.669 84.592C159.314 85.9819 159.013 88.0865 158.239 85.2299C158.013 85.5782 157.124 87.7961 156.951 87.8524C155.981 86.8229 155.842 88.0432 155.3 88.4796C155.585 89.4283 155.177 90.0499 154.076 90.3443C153.519 90.7587 152.954 91.1649 152.384 91.5622C150.316 92.997 147.682 94.2279 146.226 96.3659C145.151 95.7321 144.753 94.6382 145.407 93.5215C143.354 95.4139 140.905 97.3578 140.349 100.271C140.094 100.024 139.796 99.8465 139.459 99.7372C138.625 100.3 139.711 101.977 140.239 102.355C142.544 101.459 139.663 101.784 141.212 101.928C141.654 101.969 142.107 102.299 142.594 102.305C144.022 102.324 145.364 102.255 146.78 102.037C149.903 101.556 152.972 100.66 155.995 99.7608C159.287 98.782 162.58 97.8048 165.799 96.604C168.45 95.6154 171.057 94.5134 173.663 93.4155C174.704 92.9766 175.744 92.5321 176.787 92.0965C178.767 91.2693 179.811 89.9104 179.534 92.2384C181.111 91.9766 182.477 89.7481 183.688 88.8385C185.391 87.5603 187.306 86.6068 189.324 85.9542C190.142 85.6899 190.742 85.3539 191.587 85.3514C192.001 85.3506 192.249 86.5187 192.51 86.4551C194.321 86.0162 193.496 85.0129 194.31 83.5675C196.09 80.4082 200.887 78.661 203.832 76.8665C205.702 75.7269 207.029 74.1942 208.755 72.9323C209.563 72.3426 210.149 72.0815 210.995 71.8319C211.643 71.6402 212.437 73.1281 212.857 71.6329C211.351 71.017 210.108 70.2576 208.659 69.8082C207.633 69.4892 208.864 68.3986 207.239 69.0479C206.586 69.3089 206.362 70.5717 206.122 71.1002C204.307 69.4794 199.204 71.159 197.051 71.8376C196.902 71.8841 196.237 71.5334 195.924 71.5546C194.681 71.6378 193.815 73.3108 192.997 74.0319C190.822 75.948 188.462 76.749 185.783 77.8428C186.496 73.9479 191.735 72.3523 194.793 70.8604C199.264 68.6792 203.425 65.8952 208.319 64.7222C211.579 63.94 215.898 63.3111 217.306 67.1008C218.149 69.3726 218.255 75.0164 215.404 76.0646C215.103 75.0042 216.067 74.098 216.357 73.1778C213.52 74.2611 213.052 77.6699 210.897 79.449C209.686 80.4482 209.253 80.7688 208.667 81.7346C208.085 82.6938 207.806 83.5887 206.443 84.6091C204.216 79.8772 204.593 86.3588 203.463 87.1721C203.917 86.845 201.622 87.8002 201.896 87.699C201.79 87.7382 200.79 86.1182 200.141 86.1524C198.961 86.2144 199.188 87.5138 198.619 88.168C196.692 90.3819 194.201 91.8338 191.099 91.4855C191.027 93.0606 191.513 94.9425 189.362 95.086L189.079 91.594C187.909 92.7784 186.368 93.9033 185.415 95.2745C184.331 96.8349 184.447 97.7958 182.648 98.8358C180.769 99.9232 176.77 102.065 174.534 102.25C175.087 101.466 174.989 100.757 174.242 100.125C173.117 101.285 171.456 101.4 170.259 102.447C174.416 104.184 167.065 104.094 166.133 104.29C165.509 104.423 164.964 104.991 164.332 105.119C163.492 105.29 163.384 104.407 162.661 104.687C161.604 105.096 162.033 106.252 160.927 106.833C160.133 107.251 158.785 107.245 157.889 107.641C155.752 108.588 151.201 110.683 149.758 108.141C149.026 112.502 141.553 109.848 138.787 109.554C134.999 109.152 128.401 107.374 131.915 102.303ZM147.826 57.6852C148.362 57.2276 148.899 57.261 149.435 57.7863C148.688 53.8399 154.467 51.9238 156.989 50.2459C160.333 48.0207 164.27 43.7032 168.646 44.045C167.9 44.598 167.155 45.1511 166.409 45.7041C167.474 45.8419 168.538 45.9798 169.6 46.1177C169.001 46.9986 168.401 47.8788 167.799 48.7589C166.817 43.3459 161.693 50.1799 160.21 51.1758C158.717 52.1783 157.227 52.9255 155.9 54.1483C154.585 55.3596 153.398 57.5408 151.224 56.451C151.026 59.5425 148.541 58.704 146.822 60.4161C146.75 59.3419 147.365 58.5824 147.826 57.6852ZM170.53 42.2529C175.82 40.2715 180.426 36.6082 185.41 33.9914C190.172 31.4916 195.029 29.2468 199.87 26.9147C202.325 25.7311 206.823 22.6706 209.63 24.2302C213.417 26.3363 208.203 27.0158 206.849 27.7451C206.348 24.5018 204.593 27.44 205.642 29.2443C202.751 27.9963 196.449 32.8791 193.691 34.2255C193.067 34.5306 193.347 34.7068 192.638 35.0657C192.463 35.1538 190.654 35.5657 190.136 35.7395C187.54 36.6082 185.83 35.9181 184.711 39.0512C184.477 38.3138 184.243 37.5756 184.009 36.8374C182.384 40.486 177.445 42.0832 174.287 44.2407C173.473 44.797 171.148 46.9546 170.115 46.5084C168.678 45.8868 169.255 42.73 170.53 42.2529ZM265.957 53.2534C268.191 53.4011 266.037 54.4427 266.651 55.1312C266.581 55.0537 267.996 56.2601 267.81 55.929C268.06 56.3743 268.66 56.358 268.966 57.2634C270.023 60.377 265.41 63.5941 263.854 65.3609C260.83 68.7975 259.082 73.1493 255.93 76.4757C254.506 77.9783 253.09 79.0158 251.117 79.5762C249.736 79.9686 248.275 79.5485 247.006 80.8765C245.984 81.9458 246.215 82.5535 245.086 83.1221C243.095 84.1246 242.219 83.2453 240.282 85.4118C238.616 80.8813 243.404 80.8887 245.902 78.3567C249.351 74.8615 253.13 71.3352 256.365 67.596C259.237 64.2736 260.388 61.3607 261.752 57.3246C262.182 56.0521 262.65 53.3236 263.836 52.525C265.681 51.2819 264.574 53.1613 265.957 53.2534ZM276.94 170.943C282.797 164.392 290.064 158.509 297.94 154.562C300.755 153.151 304.763 151.299 307.68 153.472C310.542 155.601 309.926 159.848 308.773 162.737C307.667 162.303 308.711 158.243 308.137 157.239C306.886 155.05 304.186 156.212 302.349 156.947C300.197 157.806 298.277 158.756 296.573 160.316C295.881 160.948 294.557 161.515 294.114 161.95C293.449 161.674 293.056 161.875 292.939 162.554C293.076 162.97 293.06 163.379 292.889 163.782C292.792 163.91 291.927 163.385 291.804 163.49C291.242 163.971 290.717 164.536 290.165 164.982C289.056 165.879 288.113 166.303 287.093 167.552C285.122 169.968 282.515 171.383 280.535 173.684C280.088 174.204 279.552 175.538 279.452 175.655C278.451 176.823 276.968 177.747 275.839 178.984C273.887 181.12 271.802 182.554 269.55 184.386C268.58 185.174 267.449 186.023 266.804 187.12C266.51 187.62 266.345 190.36 266.334 190.372C264.125 192.793 264.555 187.926 264.721 187.316C266.515 180.75 272.58 175.821 276.94 170.943ZM264.883 215.34C265.158 216.371 265.384 217.223 265.663 218.27C263.911 216.833 263.911 216.833 264.883 215.34ZM262.991 218.717C262.348 219.365 261.701 220.01 261.049 220.65C259.616 219.135 263.254 218.457 262.991 218.717ZM262.082 192.645C261.397 195.417 258.888 198.777 257.164 200.964C257.354 200.723 255.692 201.208 255.503 201.318C254.889 201.674 256.36 203.979 254.231 202.949C253.476 203.376 254.963 205.117 253.937 205.896C250.971 199.138 259.069 193.283 262.205 188.266C263.738 189.674 262.467 191.091 262.082 192.645ZM242.817 229.184C244.98 229.74 246.105 229.39 247.565 227.266C248.442 225.99 248.763 223.731 250.77 225.64L251.124 223.185C253.99 224.36 253.749 228.609 255.001 230.963C255.611 228.3 257.054 220.859 261.472 222.053C266.433 223.393 258.177 231.924 257.41 234.014C255.724 231.397 256.387 233.831 255.101 234.2C253.997 234.517 252.273 233.704 250.932 233.778C246.852 234 243.268 235.835 239.541 237.389C238.597 234.845 237.654 232.301 236.71 229.756C238.904 229.925 243.441 224.085 244.086 228.33C242.458 228.047 242 228.118 241.207 229.6C241.714 229.343 242.25 229.204 242.817 229.184ZM251.976 262.392C251.969 262.372 256.196 262.633 256.573 262.495C259.466 261.438 258.396 258.158 258.988 255.839C260.18 256.935 259.548 258.936 259.916 260.354C260.348 262.022 261.597 263.443 261.713 265.226C261.977 269.254 258.67 268.36 256.165 269.664C254.023 270.778 253.786 272.18 251.978 269.177C251.488 268.364 250.436 266.248 250.544 265.209C250.65 264.179 252.28 263.323 251.976 262.392ZM255.382 279.825L254.213 278.516C257.697 279.582 255.643 277.979 256.444 275.787C259.117 277.567 261.297 279.397 263.412 275.833L267.067 290.573C264.612 291.15 261.445 287.358 259.762 286.055C258.79 285.303 253.394 282.403 256.634 281.558C256.216 280.98 255.799 280.403 255.382 279.825ZM279.237 233.54C277.208 235.47 275.165 236.55 272.956 238.066C271.019 239.397 271.686 240.925 270.006 242.41C268.891 243.397 266.277 244.402 264.899 245.154C262.445 246.495 260.246 246.751 257.722 245.25C258.409 250.781 254.621 251.214 249.905 252.31C247.656 252.833 246.325 253.631 244.704 251.572C243.594 250.162 243.159 247.61 244.54 246.32C246.733 244.271 252.577 244.978 255.391 243.689C257.527 242.712 259.702 237.205 262.337 239.21C260.977 237.044 262.561 236.461 263.743 234.917C265.037 233.224 265.832 231.245 267.172 229.566C269.717 226.375 273.624 223.165 277.238 221.241C280.419 219.549 282.089 220.747 282.565 224.302C282.805 226.089 282.796 228.751 281.795 230.337C281.476 230.843 280.423 230.849 280.104 231.323C279.548 232.153 280.058 232.759 279.237 233.54ZM316.558 190.64C319.095 192.604 318.848 196.732 319.248 199.543C319.812 203.505 319.403 207.338 319.343 211.374C319.279 215.601 317.205 218.355 316.228 222.318C315.143 226.726 313.743 229.061 311.309 232.76C313.948 233.175 310.02 241.058 309.372 242.078C308.669 243.186 302.999 248.291 305.43 248.291C304.089 250.059 302.629 251.874 301.293 253.594C300.767 254.271 299.844 254.537 299.43 255.015C298.585 255.986 298.534 256.852 297.93 257.986C297.012 259.707 296.71 259.247 295.504 260.495C294.671 261.358 294.124 262.495 293.306 263.322C290.67 265.983 290.334 263.803 288.86 261.753C288.634 262.302 288.232 262.646 287.656 262.786C287.194 260.466 290.372 258.123 291.708 256.713C293.897 254.403 295.897 251.858 297.832 249.332C301.975 243.919 305.699 238.168 308.637 232.008C311.763 225.452 314.26 218.357 315.557 211.205C316.546 205.753 317.485 196.402 310.201 195.016C304.903 194.007 299.063 197.226 294.695 199.832C292.034 201.42 289.357 202.998 286.822 204.784C284.07 206.72 281.691 209.461 278.704 211.015C280.338 210.165 274.947 212.723 275.773 212.003C275.386 212.339 275.72 213.366 275.464 213.83C275.131 214.433 273.975 215.028 273.456 215.418C272.086 216.447 269.896 217.5 269.273 219.2C260.581 212.999 277.866 201.991 282.297 199.187C291.087 193.626 306.38 182.761 316.558 190.64ZM340.004 130.333C339.921 125.867 343.558 119.772 346.014 116.13C347.215 114.348 349.135 114.419 349.839 112.317C350.245 111.106 349.712 109.837 349.833 108.622C349.996 106.978 350.709 105.66 351.531 104.247C358.965 91.4757 367.996 80.1717 377.616 69.0292C382.359 63.5362 386.856 57.832 391.971 52.6718C394.108 50.5168 399.852 42.7692 403.137 43.5441C404.877 43.9544 405.89 46.6095 406.675 47.9644C407.974 50.2052 409.402 52.304 410.98 54.3644C415.146 59.8044 419.952 64.5795 425.626 68.4353C429.17 70.8449 432.75 73.1868 436.215 75.7114C439.068 77.789 443.38 80.1644 445.417 83.0813C447.455 85.9991 444.463 88.4698 442.827 90.8925C440.285 94.6602 437.948 98.5642 435.395 102.328C434.381 101.599 434.643 100.117 433.948 99.1833C433.332 98.3554 432.46 98.0185 431.608 97.507C429.976 96.529 428.374 95.3332 426.9 96.9719C424.32 99.84 427.867 106.619 431.691 105.875C432.141 108.706 424.506 113.368 422.592 114.926C416.719 119.704 410.661 123.858 402.902 124.291C399.763 124.465 396.496 124.227 393.513 123.176C392.084 122.673 390.504 121.982 389.408 120.885C388.097 119.572 387.762 117.617 386.49 116.317C385.386 115.189 383.87 115.015 382.768 113.883C381.663 112.75 381.118 110.96 380.67 109.493C379.794 106.626 379.628 103.602 378.786 100.728C378.28 98.9998 377.864 96.6889 376.212 98.3497C373.813 100.763 375.018 108.349 375.632 111.24C376.51 115.364 378.57 118.689 380.728 122.238C383.067 126.087 383.931 129.657 384.35 134.111C385.135 142.448 387.527 150.449 391.25 157.95C392.817 161.108 394.694 164.078 396.386 167.164C397.176 168.604 398.947 173.516 401.097 173.49C404.531 173.447 399.639 163.433 398.96 161.752C395.198 152.441 391.605 142.654 390.799 132.572C396.192 133.961 402.07 135.279 407.654 134.399C404.049 142.46 407.815 150.485 407.354 158.783C407.124 162.944 406.957 166.782 407.043 170.931C407.119 174.569 405.476 178.205 404.056 181.495C401.235 188.028 397.684 196.087 392.446 201.092C388.066 205.275 382.208 205.603 376.486 204.639C363.469 202.447 354.916 192.44 349.453 181.076C345.943 173.775 343.261 165.982 341.595 158.054C339.667 148.878 340.176 139.64 340.004 130.333ZM356.909 68.4932C344.762 59.704 362.413 49.7231 371.398 51.082C373.506 51.4002 377.384 52.2713 377.187 55.0219C377.025 57.27 373.275 59.7758 371.836 61.1633C367.73 65.1228 363.552 73.2986 356.909 68.4932ZM445.277 263.787C444.861 263.413 441.461 264.33 442.808 262.318C443.927 260.647 447.03 262.742 448.157 263.172C447.228 263.814 446.419 264.808 445.277 263.787ZM394.697 370.089C393.652 370.217 392.561 367.402 396.325 369.505C395.782 369.699 395.239 369.894 394.697 370.089ZM394.589 415.981C394.719 417.243 395.104 418.075 394.208 418.992C393.45 418.058 393.352 416.741 394.589 415.981ZM396.117 434.943C396.006 435.63 395.895 436.316 395.785 437.002C394.916 436.563 394.048 436.123 393.178 435.683C394.157 435.436 395.138 435.19 396.117 434.943ZM397.18 418.953C398.476 419.438 397.873 417.889 398.813 417.671C399.15 419.284 398.735 420.665 397.809 421.995C397.721 421.68 397.246 418.977 397.18 418.953ZM430.285 304.53C428.467 304.299 428.193 306.219 426.838 306.964C425.963 307.445 423.301 307.084 422.804 308.004C423.46 308.194 424.116 308.384 424.772 308.573C423.271 309.382 421.769 310.192 420.267 311.001C423.879 311.001 427.643 309.276 431.23 309.783C432.747 309.997 433.858 310.509 434.81 311.743C435.387 312.492 435.894 313.696 435.987 314.613C436.088 315.605 435.315 316.29 435.452 316.763C437.068 316.808 436.877 319.459 436.514 320.54C435.727 322.884 432.601 326.554 429.799 325.067C430.971 326.731 430.672 327.68 428.939 328.645C429.096 328.095 429.212 327.134 428.326 327.229C428.099 328.151 428.186 329.612 427.433 330.307C426.591 331.085 425.838 330.176 425.033 330.682C424.077 331.282 424.365 332.224 423.613 332.875C422.62 333.735 422.478 333.124 421.29 333.291C419.491 333.546 420.639 332.428 419.199 333.885C418.7 334.388 418.784 335.695 417.977 336.431C416.425 337.843 412.286 339.314 410.799 337.504C407.226 343.167 396.515 344.526 391.529 340.055C383.578 332.925 398.404 318.424 403.299 313.829C408.212 309.217 413.669 305.233 419.19 301.387C422.328 299.203 425.547 297.22 428.835 295.274C430.862 294.072 433.409 291.879 435.901 292.089C438.136 292.278 440.046 294.013 442.399 294.356C444.1 294.604 447.406 295.014 445.26 297.322C444.255 298.4 440.312 300.144 438.97 300.407C438.181 300.561 437.35 300.266 436.568 300.426C435.245 300.697 434.336 301.814 432.897 301.672C433.353 303.808 432.521 304.814 430.285 304.53ZM453.817 225.219C453.818 226.891 450.767 226.474 450.13 225.906C449.081 224.972 449.044 222.179 448.655 220.909C450.429 221.355 453.815 222.988 453.817 225.219ZM429.242 170.079C435.65 164.812 442.387 159.983 449.51 155.73C452.061 154.207 455.662 151.136 458.83 151.519C460.159 151.68 462.906 153.207 461.906 154.889C461.719 155.204 460.24 155.331 459.783 155.559C459.265 155.818 458.859 156.531 458.379 156.883C455.05 159.324 451.052 160.824 447.713 163.325C444.969 165.378 442.41 167.675 439.457 169.437C436.623 171.126 433.662 172.195 430.972 174.067C431.025 174.029 427.472 175.306 428.169 175.539C425.05 174.496 428.344 170.818 429.242 170.079ZM471.967 168.118C475.773 166.6 479.498 164.759 483.483 163.74C485.472 163.231 487.514 162.848 489.573 163.077C489.923 162.465 490.388 162.329 490.971 162.671C491.425 163.369 492.024 163.905 492.768 164.28C493.903 165.153 498.084 166.294 497.248 168.221C496.696 169.496 492.504 169.602 491.354 169.889C487.887 170.752 484.653 172.695 481.081 173.173C480.746 173.217 479.651 172.811 479.639 172.814C478.245 173.118 477.085 174.564 475.888 175.258C473.31 176.749 469.607 177 467.756 179.575C473.75 183.638 478.95 179.609 484.219 176.541C487.376 174.704 490.764 173.378 494.214 172.2C496.017 171.585 497.836 170.946 499.663 170.406C500.419 170.13 501.196 169.932 501.994 169.81C502.737 169.663 503.268 169.933 503.588 170.621C505.797 170.548 505.986 169.162 507.316 171.747C509.19 175.391 506.322 175.206 503.627 175.654C499.89 176.274 496.089 177.67 492.406 178.596C491.556 178.81 484.108 180.537 484.099 180.598C483.762 182.949 505.138 180.772 506.973 180.419C510.212 179.796 513.685 178.027 517.037 178.453C519.612 178.781 525.476 182.557 521.37 185.066C520.561 181.197 517.786 184.393 516.338 185.699C514.408 187.437 511.642 187.27 508.995 187.951C505.375 188.881 496.108 192.37 493.537 187.921C494.35 191.82 479.578 189.839 477.547 189.71C475.567 189.584 473.011 190.005 471.098 189.44C469.85 189.072 469.156 188.261 467.981 188.078C467.693 188.388 467.348 188.599 466.947 188.711C466.351 188.41 465.814 188.027 465.334 187.562C461.378 185.744 455.257 184.739 457.455 178.947C459.529 173.484 466.938 170.123 471.967 168.118ZM509.048 171.494C509.146 171.154 509.245 170.814 509.343 170.473C509.355 171.516 511.843 171.961 511.556 173.313C510.919 176.306 508.048 171.809 507.801 171.318C508.217 171.377 508.632 171.435 509.048 171.494ZM524.238 176.466C524.526 177.692 527.834 180.303 527.014 180.905C525.71 179.131 522.105 179.936 524.238 176.466ZM468.43 288.332C469.641 285.93 473.303 290.021 472.916 285.919C474.907 286.1 473.664 287.614 476.05 286.949C476.944 286.699 477.548 285.708 478.638 285.48C478.929 285.418 480.184 285.518 480.617 285.505C482.052 285.461 487.675 285.301 483.805 283.419C485.971 281.987 486.238 282.714 488.193 284.026C487.692 281.313 490.569 282.853 491.908 283.192C490.953 281.644 493.323 279.998 494.092 278.952C493.817 280.563 493.962 282.367 496.293 281.337C496.874 281.08 496.744 279.942 497.204 279.756C498.048 279.416 498.519 280.035 498.822 280C499.12 279.966 499.747 280.133 500.373 279.898C501.186 279.592 500.794 278.5 501.825 278.338C502.496 278.233 502.986 279.22 503.806 279.228C504.227 279.232 504.929 278.805 505.249 278.828C505.305 278.832 505.706 277.866 506.198 277.842C506.917 277.807 507.21 279.735 507.473 280.109C508.732 281.895 510.407 283.06 512.338 284.013C508.844 287.217 501.794 286.878 497.4 287.958C495.02 288.543 492.99 289.388 490.812 290.476C490.286 290.818 489.834 291.237 489.455 291.734C489.147 291.529 488.838 291.324 488.529 291.119C487.336 291.193 486.207 290.602 484.864 290.829C480.714 291.529 477.465 294.637 473.248 295.33C471.353 295.642 469.796 296.076 468.562 294.434C467.479 292.993 467.658 289.864 468.43 288.332ZM462.74 269.185C463.681 269.98 462.549 272.569 464.37 272.288C465.662 272.088 465.404 270.084 466.419 269.659C467.752 269.102 468.556 270.424 469.809 270.302C472.144 270.072 472.011 268.032 470.037 267.137C472.089 266.595 472.746 269.021 474.563 268.999C476.949 268.971 476.38 266.156 478.41 265.689C479.289 265.487 478.995 266.778 479.566 266.939C480.708 267.259 481.503 266.709 482.513 266.224C483.417 265.791 484.06 264.954 485.048 264.67C485.497 264.54 486.639 264.778 486.969 264.537C487.634 264.053 488.229 262.165 488.883 261.916C488.75 261.966 490.895 263.041 491.202 263.142C491.014 263.939 490.578 264.034 489.892 263.427C489.892 265.226 494.891 265.786 493.866 263.563C496.569 264.682 494.556 265.258 494.286 266.82C494.178 267.448 493.813 267.431 493.921 268.095C493.971 268.401 495.388 268.138 495.37 268.555C495.251 271.239 486.695 272.065 485.074 272.301C481.718 272.791 478.543 273.616 475.308 274.632C472.899 275.388 468.747 277.553 466.184 277.419C462.498 277.225 462.017 272.416 462.74 269.185ZM454.504 241.792C453.605 238.806 456.489 232.637 460.244 233.408C461.167 233.598 461.395 234.363 462.111 234.702C463.111 235.177 464.738 234.927 465.605 235.417C467.549 236.518 466.569 239.321 468.517 240.334C465.442 241.08 455.932 246.539 454.504 241.792ZM458.063 253.395C459.388 252.683 461.535 252.591 462.438 251.222C462.889 251.533 463.739 253.425 464.546 253.135C464.923 253.001 465.312 251.975 465.285 251.976C466.004 251.956 466.146 250.983 467.245 251.092C468.253 251.193 469.382 252.405 470.28 252.857C470.126 249.852 470.896 249.565 473.333 247.956C473.867 247.604 474.313 246.281 474.806 245.746C474.335 248.899 475.523 248.916 478.041 249.39C481.198 249.984 483.165 251.679 484.43 254.729C481.74 254.205 478.269 254.836 477.209 257.728C475.062 253.805 467.259 259.218 464.734 260.327C462.861 261.15 460.681 262.256 459.11 260.338C458.004 258.987 458.638 257.362 458.662 256.162C458.668 255.786 459.057 255.763 459.021 255.202C458.976 254.486 458.043 254.2 458.063 253.395ZM486.784 315.079C486.073 315.348 482.417 315.499 482.393 314.288C482.373 313.218 488.847 314.296 486.784 315.079ZM480.844 311.16C478.077 312.866 474.981 306.856 473.964 305.125C476.866 305.496 478.283 303.069 479.993 301.223C481.62 304.787 484.09 302.904 486.688 301.714C489.751 300.31 493.109 300.299 496.248 299.173C497.227 298.821 498.13 298.298 499.086 297.896C499.856 297.608 500.624 297.313 501.388 297.01C501.931 296.521 502.124 295.918 501.966 295.204C501.709 294.603 501.884 294.224 502.492 294.067C503.215 294.283 503.952 294.408 504.706 294.442C505.915 294.202 507.654 293.061 506.193 291.831C507.758 290.41 509.325 291.823 510.832 292.445C510.473 291.424 510.117 290.404 509.759 289.384C510.506 289.701 512.725 292.801 512.951 292.783C514.385 292.676 514.236 290.751 515.059 289.975C515.535 290.561 515.671 294.934 517.541 293.461C518.34 292.832 516.619 290.686 516.195 290.198C518.334 290.681 520.201 293.234 520.779 295.216C519.764 295.363 518.825 295.159 517.962 294.602C517.411 297.363 522.521 296.244 523.348 297.687C524.968 300.51 514.43 302.471 513.058 302.733C510.31 303.256 507.068 303.451 504.55 304.669C502.137 305.835 501.566 306.168 498.747 306.387C495.529 306.636 492.389 307.697 489.277 308.522C486.574 309.239 483.24 309.684 480.844 311.16ZM539.656 210.102C542.197 209.188 550.755 204.443 552.934 206.553C552.704 206.329 554.505 210.051 554.486 209.816C554.641 211.752 554.594 212.531 552.211 213.459C550.505 214.123 549.019 212.711 547.484 213.272C545.798 213.888 546.977 214.977 546.109 215.738C545.158 216.573 543.324 216.934 542.141 217.299C539.243 218.194 536.323 218.942 533.44 219.906C527.572 221.868 521.359 223.693 515.329 225.081C510.823 226.118 503.175 228.694 499.023 225.651C498.618 227.381 497.628 227.145 496.253 227.397C495.173 227.594 493.222 228.128 492.263 228.156C490.667 228.202 486.228 227.784 486.839 225.545C486.671 226.162 490.291 224.051 489.665 223.919C491.202 224.243 490.704 223.469 491.964 223.038C493.609 222.476 495.328 222.506 497.008 221.911C501.242 220.41 504.794 218.462 509.263 217.522C519.471 215.374 529.807 213.646 539.656 210.102ZM130.42 441.429C129.593 441.451 128.949 439.101 131.465 440.779C131.117 440.996 130.769 441.212 130.42 441.429ZM110.541 438.388C109.416 438.676 108.968 438.048 109.197 436.506C110.765 435.886 111.213 436.513 110.541 438.388ZM95.1943 435.24C94.9064 433.865 95.926 433.555 96.8502 432.938C96.7572 434.76 96.7572 434.76 95.1943 435.24ZM56.5805 423.923C55.025 423.582 52.9523 422.06 52.5958 424.614C52.3356 424.023 51.0076 421.241 51.5778 420.598C51.8756 420.261 53.0028 421.819 52.8829 421.665C54.2444 418.911 56.5911 422.234 57.9028 423.217C57.4623 423.453 57.021 423.688 56.5805 423.923ZM461.02 119.587C461.557 118.452 462.19 118.091 462.918 118.507C461.774 121.162 457.901 122.602 461.02 119.587ZM487.93 94.6562C488.889 96.4548 487.446 97.215 486.416 98.7102C487.019 97.0975 487.436 95.98 487.93 94.6562ZM604.885 270.232C608.345 270.231 615.716 268.404 617.802 272.36C619.183 269.672 620.753 274.712 621.951 275.521C622.086 275.612 622.948 274.952 623.35 275.195C623.955 275.561 624.477 276.559 624.824 277.152C625.869 278.94 626.318 281.066 626.897 283.033C620.854 283.033 614.657 281.626 608.618 281.115C604.655 280.779 600.769 280.769 596.799 280.983C596.011 281.025 594.445 280.765 593.77 280.913C593.085 281.064 591.842 282.46 591.087 282.236C592.261 284.439 607.294 289.773 608.44 287.333C607.081 286.511 604.063 285.879 604.066 283.892C604.068 281.666 606.897 281.67 608.396 281.736C611.675 281.879 617.167 282.971 618.511 286.38C619.087 287.842 619.264 291.522 618.631 292.933C618.222 293.845 617.531 294.94 616.434 295.125C615.985 295.201 615.337 294.603 615.269 294.618C613.019 295.095 608.855 296.902 606.401 294.354C604.632 296.644 596.109 294.143 593.5 293.279C588.937 291.769 582.654 289.694 579.882 285.436C576.503 280.247 583.372 275.861 587.316 273.751C592.707 270.869 598.866 270.234 604.885 270.232ZM627.913 282.231C628.974 282.53 630.035 282.83 631.095 283.13C630.811 284.989 626.627 283.518 627.913 282.231ZM659.977 349.834C660.304 342.382 658.149 335.82 656.905 328.613C656.597 326.827 656.912 323.704 655.555 322.234C654.258 320.83 651.365 321.972 651.25 319.489C649.974 320.984 650.103 321.296 648.529 319.577C648.816 320.314 648.858 321.064 648.654 321.827C647.677 321.268 644.139 319.41 644.437 321.951C641.527 321.307 642.37 319.487 640.71 318.098C640.474 317.901 639.527 318.601 639.157 318.303C638.49 317.762 638.16 317.271 637.597 316.574C636.882 317.439 635.908 318.064 635.033 318.747C634.525 317.64 633.536 316.828 632.346 316.559C633.458 318.885 636.207 321.898 632.437 323.222C630.186 324.012 626.5 323.044 624.117 323.228C615.283 323.913 605.607 321.987 597.065 319.883C588.291 317.721 579.418 314.67 571.526 310.209C569.845 309.258 568.785 308.132 567.336 306.953C565.928 305.806 564.905 305.625 563.212 304.892C560.165 303.572 557.379 301.455 555.062 299.096C550.078 294.023 545.448 287.389 546.836 279.962C548.219 272.56 553.308 266.775 558.753 261.9C565.183 256.143 572.443 251.336 580.148 247.46C583.594 245.729 592.407 239.221 595.811 243.029C597.986 245.461 596.763 248.565 593.79 249.106C593.057 249.239 592.291 248.748 591.55 249.084C590.481 249.571 590.857 250.145 590.416 250.55C589.65 251.254 588.836 252.352 587.691 252.962C583.697 255.092 579.835 256.78 576.017 259.374C574.257 260.569 572.562 261.083 571.011 262.126C569.468 263.163 569.117 264.879 567.042 263.82C567.781 266.838 563.343 270.07 561.604 271.919C558.91 274.782 555.68 278.437 556.937 282.673C559.398 290.965 570.517 297.263 577.632 300.909C586.512 305.457 596.304 309.078 606.192 310.576C611.107 311.321 616.187 311.781 621.139 312.253C624.995 312.621 630.912 311.275 633.686 314.747C633.772 310.698 646.419 311.055 649.111 310.537C643.714 292.09 633.117 275.689 621.789 260.365C616.229 252.842 610.768 245.106 604.431 238.21C597.493 230.661 589.566 223.914 582.034 216.968C567.262 203.343 550.555 191.183 533.554 180.472C516.592 169.785 499.026 159.267 480.443 151.648C459.22 142.946 436.875 137.222 414.506 132.347C417.54 128.481 422.476 126.595 426.361 123.766C427.722 122.776 429.561 120.399 431.327 120.074C433.241 119.722 434.748 121.781 436.11 122.814C440.02 125.78 442.724 124.521 447.202 124.342C449.881 124.235 456.227 125.727 457.356 122.103C458.859 124.103 456.68 125.707 455.565 127.173C456.377 128.306 457.031 127.131 457.833 126.954C458.08 126.749 458.326 126.544 458.574 126.339C458.972 125.763 459.33 125.76 459.649 126.328C460.127 127.047 460.609 126.888 461.093 125.85C461.226 125.766 461.358 125.682 461.491 125.599C462.07 125.291 462.629 124.803 463.168 124.419C467.237 121.511 470.864 119.033 475.356 116.891C479.128 115.094 477.1 111.654 479.587 109.225C480.15 108.675 481.097 108.951 481.699 108.485C482.288 108.027 482.377 107.508 482.806 107.018C483.84 105.839 482.61 104.472 485.246 105.914L484.295 100.563C489.464 105.578 489.444 91.1462 490.15 89.0107C490.057 89.2929 490.614 87.1076 490.614 87.1264C490.765 82.7958 491.357 79.657 486.285 79.4057C488.205 78.1977 488.792 80.5567 489.679 78.1145C490.122 76.8909 488.737 74.788 490.946 75.5768C491.411 72.9764 490.951 70.8718 490.372 68.3448C489.778 65.7582 490.127 64.0322 490.154 61.4456C490.184 58.5115 488.811 55.5627 488.371 52.6735C488.027 50.4107 488.382 46.842 485.457 47.6732C485.046 47.0296 486.49 45.0499 486.431 44.0711C486.34 42.5506 484.69 41.0056 484.223 39.5455C483.535 40.2552 482.566 40.4917 481.63 40.1712C482.509 38.1874 481.684 37.521 480.843 35.8104C480.361 34.8308 480.652 33.7491 479.62 33.0471C479.029 32.6442 478.021 33.3228 477.557 32.8506C476.564 31.8391 476.931 30.4972 476.247 29.1644C475.39 27.493 473.432 26.2164 472.082 24.9619C464.496 17.9101 456.255 12.5208 446.163 9.7653C435.983 6.98538 424.113 5.98941 413.967 9.19594C409.911 10.4774 406.311 10.3461 402.66 12.7394C401.477 13.5159 401.349 13.3079 400.748 14.6024C400.61 14.9042 401.87 15.7077 401.098 16.2012C400.26 16.7371 399.334 15.6473 398.906 14.7427C393.626 18.5651 388.677 23.6608 385.67 29.5037C382.681 35.3096 382.407 42.1305 381.266 48.44C376.002 42.4266 368.883 39.5439 361.143 42.4348C354.396 44.9537 349.168 50.4907 347.848 57.664C347.043 62.0369 347.922 66.4654 349.909 70.411C350.768 72.1158 351.808 74.0033 353.387 75.151C354.636 76.0581 356.774 75.9308 357.363 77.5671C358.264 80.0738 353.058 85.4876 351.706 87.6819C349.262 91.6527 346.99 95.7533 345.261 100.09C339.061 91.3322 333.126 81.7664 326.075 73.6909C319.422 66.069 311.49 59.2334 303.71 52.7909C287.564 39.4199 270.776 26.8584 252.714 16.2061C235.897 6.28714 215.583 0.780318 195.983 2.7274C176.832 4.63044 162.171 16.742 149.833 30.711C126.111 57.5693 111.582 95.8512 110.163 131.604C109.736 142.345 110.554 152.945 113.207 163.362C114.47 168.322 114.287 173.201 115.021 178.225C115.85 183.893 117.283 189.54 118.669 195.091C123.948 216.24 130.674 237.373 138.222 257.821C142.146 268.454 146.895 278.85 153.318 288.226C156.285 292.557 160.128 295.946 163.321 300.059C166.418 304.047 167.237 308.943 167.918 313.838C169.551 325.573 170.634 337.358 171.616 349.162C172.033 354.165 172.52 359.124 173.182 364.091C173.76 368.423 172.307 368.21 168.663 369.681C169.402 365.789 151.993 368.437 150.35 368.703C148.561 368.991 146.667 368.995 145.258 369.226C143.683 369.482 142.141 369.853 140.327 369.801C137.661 369.724 132.668 369.043 131.65 372.447C130.949 368.5 126.321 372.815 129.745 372.083C126.23 372.476 122.644 371.822 119.086 372.153C115.009 372.532 110.897 372.892 106.849 373.506C104.031 373.932 101.341 375.018 98.5183 375.333C94.9056 375.736 91.1354 375.699 87.4876 376.02C74.0325 377.207 60.0864 380.142 47.0074 383.503C44.0448 384.264 40.6409 384.805 37.8104 386.027C37.0526 386.353 36.3706 387.084 35.6447 387.364C34.4276 387.834 34.594 387.51 33.5132 387.725C27.0374 389.019 20.3567 391.134 13.8817 392.793C10.2901 393.714 4.44805 394.544 1.51837 397.051C0.205084 398.173 -0.94261 400.164 1.16191 401.44C2.84307 402.459 5.24255 400.832 6.60315 399.953C5.39101 403.112 3.10491 404.687 4.33956 408.281C5.31433 411.121 7.5151 414.621 10.9011 412.789C11.3546 413.844 11.5382 415.942 12.8735 416.329C14.0734 416.678 14.9421 415.157 16.1175 415.515C16.5384 415.643 16.3785 416.438 16.7554 416.646C17.4047 417.004 18.063 417.155 18.8069 417.408C19.4464 417.625 20.4758 418.07 21.1431 418.117C21.5664 418.147 22.564 417.423 22.5608 417.423C23.5331 417.571 24.056 419.431 24.7558 419.969C25.6645 420.667 26.415 420.826 27.5529 421.079C29.9184 421.604 32.9675 422.505 34.5288 420.083C34.1715 421.812 36.5232 421.643 37.5608 421.862C37.4457 420.951 36.9425 420.117 36.1659 419.616C38.4858 419.77 37.5453 422.076 39.2599 422.685C40.4818 423.118 40.3431 422.017 41.2779 421.895C42.5096 421.734 43.4444 422.628 45.3679 421.803C45.7847 423.656 45.9372 425.524 48.2122 425.8C49.5475 425.963 52.6611 423.551 52.4849 425.558C55.4679 424.684 56.6001 425.275 58.1589 427.904C58.4224 426.29 59.6973 426.758 60.8671 426.658C62.7212 426.5 62.7685 426.649 64.2057 425.6C64.3371 425.504 65.4676 422.914 65.9701 424.524C66.1961 425.245 64.7025 426.941 64.1495 427.373C64.8363 427.721 67.0868 428.937 67.9523 428.713C68.7011 428.52 68.7035 427.24 69.6032 427.174C69.383 427.91 69.1636 428.646 68.9425 429.382C70.693 429.637 72.1556 428.465 73.5382 427.607C74.8564 430.94 78.6241 429.062 80.6732 431.571C81.7572 432.898 81.8078 433.906 83.8732 434.253C85.9867 434.607 87.8326 433.68 89.6288 435.423C89.0594 434.342 87.6409 433.444 89.0505 432.282C90.0097 433.643 90.5049 435.283 91.611 436.549C91.7635 435.905 91.916 435.262 92.0686 434.617C94.9521 437.701 98.582 437.728 102.275 439.438V437.181C104.92 441.217 105.061 438.663 108.22 437.015C108.006 438.201 107.79 439.388 107.576 440.574C109.849 440.403 111.973 443.096 113.84 440.808C114.967 442.699 116.333 441.769 118.181 442.369C119.232 442.711 120.014 443.745 121.036 444.119C122.569 444.681 123.026 444.654 124.469 445.143C125.752 445.577 126.481 446.422 128.088 446.693C129.131 446.869 130.077 446.856 131.076 446.808C131.461 446.789 131.334 445.921 132.191 446.124C133.517 446.438 134.504 448.1 135.458 448.952C136.894 445.344 140.914 450.178 142.857 450.821C143.043 449.896 143.009 448.781 143.679 448.021C144.465 449.744 144.766 451.192 146.398 452.301C147.34 452.941 148.723 453.4 149.811 453.634C150.499 453.781 151.749 453.604 152.181 453.816C152.918 454.178 153.19 455.143 153.935 455.233C154.373 455.286 155.022 454.134 155.35 454.224C156.851 454.633 157.685 456.456 159.2 457.442C163.71 460.376 169.386 460.661 174.411 461.305C175.672 461.465 175.854 461.121 176.879 461.861C177.426 462.257 177.178 463.459 177.85 463.796C180.382 465.065 180.384 462.357 180.915 460.674C181.753 461.779 181.897 463.239 183.043 464.118C183.669 464.1 184.295 464.114 184.92 464.16C185.273 464.563 185.504 465.027 185.612 465.553C187.129 466.577 188.848 466.221 190.415 466.99C190.929 467.242 191.839 468.767 192.472 469.205C193.605 469.989 195.357 470.409 196.652 470.75C199.366 471.464 203.259 470.515 204.874 473.349C207.018 471.051 206.189 473.796 207.645 474.372C208.505 474.712 209.798 473.359 210.751 473.494C212.468 473.735 213.086 475.594 213.636 476.946C214.682 476.712 213.964 473.754 213.935 473.105C215.234 472.952 215.523 476.374 215.747 477.126C217.799 476.138 214.432 473.064 216.637 472.078C216.435 474.697 218.522 476.854 214.795 477.229C215.309 478.806 227.333 480.559 228.168 479.166C228.353 481.741 230.082 479.336 230.72 478.455C230.792 479.957 230.281 482.088 231.966 482.786C233.111 483.26 235.694 482.034 236.143 480.912C236.656 482.626 237.516 482.571 238.585 483.66C239.319 484.408 239.802 485.705 240.572 486.331C241.989 487.484 244.625 487.308 246.276 487.05C249.506 486.546 249.124 485.927 250.275 489.284C250.535 488.01 251.351 485.345 252.774 487.326C253.679 488.585 251.752 491.359 251.195 492.465C252.439 491.781 253.675 490.97 255.091 490.676C255.17 491.112 255.243 492.038 255.034 492.442C255.076 492.36 256.587 493.373 257.148 493.654C257.013 493.586 257.59 491.064 257.574 491.146C259.567 492.376 258.184 494.728 259.949 495.941C260.405 496.255 261.476 495.889 262.027 496.08C262.987 496.413 263.818 497.312 264.671 497.838C263.99 496.925 264.088 495.391 264.134 494.337C264.568 494.576 264.878 495.474 265.316 495.545C265.482 495.572 267.199 495.799 267.187 495.791C268.974 497.042 268.607 497.2 267.072 498.705C267.62 499.566 269.912 498.069 270.532 497.82C270.661 498.157 270.695 499.381 270.939 499.6C271.086 499.962 271.235 500.324 271.383 500.686C271.841 500.345 272.332 500.231 272.856 500.344C273.187 500.459 275.772 501.511 275.947 501.151C275.382 500.968 274.869 500.688 274.41 500.31C275.902 498.969 276.884 498.256 278.258 500.193C278.431 500.436 277.836 501.313 278.012 501.631C278.669 502.815 280.018 503.757 280.934 504.722C281.314 503.39 280.431 500.055 282.537 500.176C284.22 500.272 285.5 504.349 284.917 505.617C285.586 504.885 289.58 504.158 290.334 504.387C292.465 505.033 291.867 507.004 294.49 504.116C296.278 505.35 294.702 505.818 295.024 507.322C295.496 507.42 295.943 507.304 296.367 506.972C296.05 513.365 300.767 508.48 303.83 509.456C305.033 509.84 305.34 511.205 306.631 511.603C307.313 511.814 308.073 511.315 308.737 511.437C309.269 511.361 309.797 511.267 310.323 511.156C310.988 510.822 311.301 511.195 311.26 512.275C312.33 512.829 311.925 513.046 313.177 513.154C313.983 513.224 314.724 512.386 315.64 512.528C317.22 512.776 317.011 513.989 318.021 514.623C318.93 515.194 319.954 515.175 321.073 515.065C321.644 515.009 323.245 514.274 323.437 514.272C324.633 514.255 323.985 514.001 325.42 515.028C326.538 515.829 327.007 516.348 328.379 516.716C329.952 517.138 332.744 518.061 333.803 516.923C335.232 519.067 336.352 517.494 338.24 517.636C339.206 517.709 339.359 518.085 340.219 518.235C341.612 518.478 343.35 518.268 344.833 518.743C347.168 519.494 347.431 519.871 349.818 519.972C350.249 519.804 350.68 519.635 351.109 519.467C351.238 520.185 351.577 520.772 352.126 521.226C353.461 521.506 354.338 520.832 355.439 520.094C356.26 522.65 358.922 522.873 361.2 523.209C364.874 523.752 368.388 524.048 371.932 525.256C374.925 526.276 377.923 527.421 380.802 528.727C383.335 529.876 385.726 531.595 388.593 530.788C395.087 528.959 401.381 522.292 406.815 518.464C413.251 513.931 420.191 510.195 426.916 506.119C453.687 489.891 481.97 476.164 508.367 459.332C522.778 450.143 536.149 439.225 551.626 431.791C549.423 440.895 545.672 450.137 546.35 459.668C546.622 463.51 547.754 468.047 550.733 470.728C554.415 474.044 558.518 471.933 562.04 469.564C569.588 464.49 574.62 457.085 580.269 450.132C586.951 441.906 592.133 433.069 597.039 423.694C598.215 425.344 597.321 428.109 597.338 429.938C597.361 432.273 597.99 434.523 599.073 436.607C601.867 441.985 607.186 443.29 611.991 439.604C621.24 432.512 626.607 419.881 631.562 409.709C634.389 414.967 638.4 421.586 645.188 417.83C650.789 414.731 654.079 407.807 655.792 401.942C660.794 384.822 659.209 367.383 659.977 349.834Z" fill="#15161B"/>
<path fill-rule="evenodd" clip-rule="evenodd" d="M651.483 247C650.845 245.449 650.564 245.703 651.739 244.198C652.654 245.1 651.922 245.844 651.483 247ZM679.788 340.899C677.992 335.792 679.102 330.247 678.011 325.009C677.51 322.606 676.72 320.275 676.435 317.829C676.309 316.743 675.342 311.856 676 311.087C673.974 309.86 673.968 308.952 673.499 306.547C674.221 305.781 674.131 305.127 673.227 304.585C672.636 303.87 672.045 303.155 671.454 302.441C674.039 303.704 672.509 300.47 672.246 298.606C672.037 297.133 671.896 295.596 671.405 294.184C670.801 292.448 669.457 291.57 672.253 291.57C671.333 290.524 669.957 289.444 669.498 288.162C668.839 286.318 669.927 283.881 668.582 282.252C667.833 281.343 663.969 280.987 664.646 279.025C664.992 278.025 666.558 278.771 667.042 278.071C668.947 275.317 663.323 274.176 663.048 273.004C662.69 271.485 664.722 271.146 664.846 269.726C664.968 268.336 662.807 266.052 662.236 264.809C661.458 264.998 660.605 266.229 659.714 265.641C659.545 265.53 659.799 260.718 659.596 260.079C659.397 259.451 658.99 257.786 658.845 257.477C658.268 256.253 656.618 255.657 656.356 254.21C656.2 253.347 659.582 252.041 655.703 252C657.096 249.545 654.544 248.053 653.615 245.955C652.421 243.257 651.717 240.343 650.49 237.632C649.297 234.996 647.964 232.495 646.244 230.165C644.688 228.055 644.015 226.025 642.771 223.797C642.522 223.601 642.273 223.405 642.025 223.21C640.987 223.36 640.654 222.887 641.026 221.792C640.232 220.616 639.643 219.362 638.943 218.134C638.13 216.708 637.032 215.544 636.192 214.157C635.077 212.317 634.748 210.243 633.487 208.398C631.938 206.128 630.196 204.126 628.76 201.771C626.96 198.821 624.967 196.987 622.703 194.702C621.625 193.614 621.496 190.896 620.175 189.351C618.737 187.668 617.317 187.212 616.32 185.004C615.023 182.13 613.12 180.758 611.268 178.274C609.739 176.225 608.993 173.87 607.309 171.888C605.861 170.185 604.217 168.63 602.672 167.016C600.721 164.977 599.28 162.5 597.249 160.562C597.542 160.842 595.481 159.209 595.585 159.261C595.129 159.028 593.657 158.841 593.872 158.968C590.806 157.166 586.965 150.571 582.353 154.066C579.926 155.903 581.09 159.274 582.784 161.104C583.512 161.891 587.292 165.767 588.109 164.132C588.991 165.382 591.706 171.423 593.965 169.692C593.735 171.757 594.931 171.071 595.72 172.467C596.24 173.388 595.987 173.84 596.365 175.277C597.407 179.228 601.381 183.087 603.498 186.533C608.767 195.109 614.579 203.242 619.852 211.827C624.878 220.01 630.506 227.773 635.328 236.066C640.812 245.495 647.644 254.396 651.775 264.562C651.915 264.903 653.063 265.444 653.347 265.957C653.844 266.849 653.737 268.391 654.057 269.4C655.166 272.901 656.963 276.348 659.01 279.248C660.806 281.792 660.937 285.25 662.172 288.234C663.916 292.441 665.757 296.603 667.45 300.831C670.086 307.411 671.871 313.718 673.693 320.588C674.873 325.04 675.812 329.49 676.188 334.087C676.534 338.315 676.619 342.719 678.183 346.722C679.25 345.074 680.507 342.939 679.788 340.899Z" fill="#202029"/>
<path fill-rule="evenodd" clip-rule="evenodd" d="M76.8713 431.491C74.9772 431.109 73.1949 430.598 72.7936 428.424C72.5187 429.449 72.2446 430.474 71.9697 431.5C74.2757 432.022 76.5825 432.545 78.8885 433.067C78.3502 432.118 77.957 431.711 76.8713 431.491Z" fill="black"/>
<path fill-rule="evenodd" clip-rule="evenodd" d="M81.9537 74.5874C82.0973 73.9739 82.2833 73.3728 82.5125 72.7863C82.6683 73.3581 83.4318 74.5947 82.9872 75.1339C82.4211 75.8183 81.8485 75.4308 81.9537 74.5874ZM91.2389 56.9208C91.8604 57.1949 93.2055 57.2479 93.9772 57.4796C91.9755 59.2015 91.6231 58.695 89.0348 58.4951C88.9198 56.7528 89.6279 56.212 91.2389 56.9208ZM73.888 100.054C74.1564 100.061 74.4256 100.068 74.6956 100.074C74.7119 99.3154 74.6923 98.5577 74.6352 97.8007C77.3646 98.397 75.8196 93.6275 74.9623 92.6389C77.6248 92.7278 78.9217 84.2983 79.7652 82.6743C80.514 81.2321 81.3623 80.6741 81.9097 78.9155C82.3885 77.3763 82.9065 75.9912 83.5974 74.5352C85.1847 71.1875 87.2672 68.1474 86.883 64.2459C88.2281 67.1734 89.4109 64.2507 90.2641 62.851C91.6386 60.5956 94.9919 57.7178 95.3484 55.039C95.6633 52.6808 93.9111 52.556 94.9454 50.3691C95.9912 48.1553 96.8509 48.3771 98.683 47.6691C99.9017 47.1976 100.144 47.7703 101.004 46.2318C101.561 45.2359 101.364 44.4936 102.078 43.6771C102.372 43.9332 102.708 44.0392 103.083 43.9952C103.662 43.2309 104.042 42.3793 104.222 41.4404C104.695 40.1728 104.923 39.0088 105.634 37.8015C106.309 36.6579 107.506 33.5982 108.141 33.0467C108.815 32.461 112.636 32.7588 112.62 32.78C114.199 30.7946 111.302 28.8165 115.313 29.2349C114.521 27.7601 117.303 25.9297 118.111 25.1091C120.128 23.0609 120.289 22.113 120.714 19.537C120.931 18.2237 119.519 18.3755 121.411 18.0761C122.193 17.9529 122.944 18.953 123.508 18.8061C126 18.1601 123.393 18.2833 124.081 17.2677C124.298 16.9455 125.406 15.6453 125.396 15.6592C125.342 15.7244 125.645 14.5278 125.897 14.2203C126.373 14.1795 126.842 14.0963 127.303 13.9707C127.537 13.4975 127.744 13.013 127.924 12.5171C129.727 11.0129 132.425 10.34 133.673 8.68734C134.479 7.61876 134.238 6.57221 135.28 5.5069C136.273 4.49216 137.586 5.22711 137.783 2.93498C138.033 0.0188413 134.901 -1.27894 133.62 1.66412C130.145 -2.61588 115.62 13.0872 113.942 15.1387C106.654 24.0446 99.4905 33.1707 93.5122 43.0188C87.6873 52.6147 82.9065 62.7115 79.1697 73.2953C77.3678 78.3983 76.2707 83.4785 75.1703 88.757C74.8008 90.5246 72.0396 98.4019 73.189 100.165C73.4214 100.128 73.6547 100.09 73.888 100.054Z" fill="black"/>
<path fill-rule="evenodd" clip-rule="evenodd" d="M647.577 318.45C648.805 317.631 648.805 317.631 649.02 316.084C647.374 316.384 647.374 316.384 647.577 318.45Z" fill="black"/>
<path fill-rule="evenodd" clip-rule="evenodd" d="M42.4565 422.555C42.472 422.553 42.4834 422.557 42.4924 422.566C42.4663 422.533 42.3716 422.434 42.4565 422.555Z" fill="black"/>
<path fill-rule="evenodd" clip-rule="evenodd" d="M41.6337 423.384C42.013 424.204 42.6223 424.408 43.4625 423.994C43.7937 424.467 40.5896 421.042 41.6337 423.384Z" fill="black"/>
<path fill-rule="evenodd" clip-rule="evenodd" d="M97.0409 49.2247C95.1183 52.994 97.5263 50.2524 97.4031 51.4768C97.4839 50.6725 97.8175 49.5265 97.0409 49.2247Z" fill="black"/>
<path fill-rule="evenodd" clip-rule="evenodd" d="M409.612 107.565C410.444 114.324 419.691 111.128 421.771 107.039C423.286 104.063 427.111 92.3012 422.996 89.8165C419.945 87.9747 419.293 95.9131 418.541 97.6865C417.281 100.656 416.296 98.5519 413.494 99.3138C410.402 100.155 409.267 104.763 409.612 107.565Z" fill="black"/>
<path fill-rule="evenodd" clip-rule="evenodd" d="M399.508 95.1937C402.814 95.9278 406.053 95.5493 408.401 92.9391C409.701 91.4936 411.431 88.6264 409.09 87.2275C406.969 85.9607 404.563 88.9274 402.329 88.314C399.291 87.4796 400.855 84.2216 399.813 82.0698C395.982 84.2755 393.845 93.9359 399.508 95.1937Z" fill="black"/>
<path fill-rule="evenodd" clip-rule="evenodd" d="M402.936 112.261C399.75 112.254 399.724 116.173 401.387 117.852C402.979 119.459 407.003 121.086 409.161 119.836C413.417 117.369 405.515 112.515 402.936 112.261Z" fill="black"/>
<path fill-rule="evenodd" clip-rule="evenodd" d="M217.551 268.09C218.232 268.421 220.237 270.121 221.082 269.353C219.889 268.152 218.696 266.95 217.503 265.749C216.844 266.471 216.392 267.528 217.551 268.09Z" fill="black"/>
<path fill-rule="evenodd" clip-rule="evenodd" d="M202.495 96.1717C202.156 96.4246 201.817 96.6766 201.478 96.9287C202.621 97.8806 202.593 98.1637 203.744 97.2623C203.403 96.812 202.987 96.449 202.495 96.1717Z" fill="black"/>
<path fill-rule="evenodd" clip-rule="evenodd" d="M418.436 320.421C417.796 319.271 416.586 321.392 415.768 321.737C414.437 322.297 413.344 319.328 413.726 322.887C410.717 321.509 408.891 324.67 406.95 326.316C404.209 328.643 400.855 329.904 399.026 333.208C407.634 335.222 417.093 327.801 423.511 322.926C424.559 322.13 429.794 318.114 426.246 317.726C424.794 317.568 419.513 322.354 418.436 320.421Z" fill="black"/>
<path fill-rule="evenodd" clip-rule="evenodd" d="M415.883 313.453C417.57 312.125 413.932 312.003 413.357 311.864C413.407 312.92 413.455 313.975 413.505 315.032C414.319 314.538 415.112 314.011 415.883 313.453Z" fill="black"/>
<path fill-rule="evenodd" clip-rule="evenodd" d="M409.548 317.883C410.052 317.568 411.458 316.585 410.502 315.852C409.638 316.402 409.02 317.299 408.885 318.323C409.106 318.176 409.327 318.029 409.548 317.883Z" fill="black"/>
<path fill-rule="evenodd" clip-rule="evenodd" d="M270.134 232.227C269.057 232.65 268.574 233.318 268.687 234.233C270.343 233.894 270.028 232.331 270.134 232.227Z" fill="black"/>
</svg>
