<svg width="600" height="486" viewBox="0 0 600 486" fill="none" xmlns="http://www.w3.org/2000/svg">
<path fill-rule="evenodd" clip-rule="evenodd" d="M300.401 318.675C291.198 318.556 281.995 318.437 272.792 318.317C276.201 320.541 279.611 322.765 283.021 324.988C307.101 340.693 331.181 356.397 355.262 372.102C349.525 375.927 343.788 379.752 338.051 383.576C332.314 387.401 326.577 391.226 320.84 395.05C322.871 397.202 324.903 399.353 326.935 401.505C328.967 403.656 330.999 405.807 333.031 407.959L329.259 410.105C326.714 411.552 324.17 413 321.626 414.447C318.575 416.184 315.523 417.92 312.472 419.656C308.553 421.886 304.634 424.115 300.715 426.345L293.304 430.562C293.158 430.645 292.998 430.75 292.83 430.86C292.325 431.192 291.748 431.57 291.29 431.53C290.64 431.471 289.619 430.658 288.814 430.017C288.483 429.754 288.189 429.52 287.973 429.379C285.617 427.846 283.265 426.309 280.915 424.766C273.685 420.022 266.481 415.238 259.306 410.411C241.715 398.576 224.162 386.599 207.321 373.709C199.54 367.755 192.318 361.582 186.239 353.834C179.551 345.311 174.028 335.898 169.172 326.23C165.083 318.092 161.463 309.713 158.252 301.191C157.942 300.368 157.503 299.405 157.033 298.375C155.833 295.742 154.431 292.669 154.466 290.355C154.484 289.165 155.201 287.616 155.837 286.244C156.124 285.622 156.396 285.036 156.578 284.536C157.268 282.639 157.957 280.742 158.647 278.844C159.337 276.947 160.028 275.05 160.718 273.152C160.946 272.523 161.245 271.846 161.555 271.147C162.204 269.679 162.894 268.117 163.058 266.713C163.259 265.004 162.757 262.864 162.293 260.891C162.078 259.975 161.871 259.095 161.747 258.311C161.699 258.009 161.666 257.57 161.627 257.07C161.512 255.578 161.355 253.548 160.672 253.039C160.236 252.714 158.933 252.741 157.962 252.761C157.581 252.769 157.252 252.775 157.046 252.759C153.142 252.459 149.239 252.159 145.335 251.859C143.318 251.704 141.3 251.548 139.283 251.393L91.6482 247.729C90.2075 247.618 88.7087 247.569 87.1927 247.52C84.109 247.419 80.9536 247.316 78.0779 246.685C74.8372 245.974 72.8112 243.376 71.8424 240.337C68.9344 231.211 66.1849 221.942 64.4143 212.52C62.7018 203.414 64.3555 196.329 68.0896 187.903C71.3583 180.528 75.2187 173.214 79.6083 166.435C80.6732 164.79 80.8374 164.825 82.215 165.119C82.4754 165.174 82.7787 165.239 83.1402 165.303C92.4643 166.965 101.789 168.627 111.113 170.289C126.892 173.103 142.672 175.915 158.451 178.728C174.231 181.541 190.01 184.354 205.79 187.166C216.917 189.15 228.044 191.134 239.171 193.117C239.67 193.206 240.317 193.261 241.015 193.321C242.589 193.455 244.423 193.611 245.416 194.23C245.943 194.56 246.375 195.354 246.752 196.049C246.901 196.321 247.041 196.578 247.175 196.786L247.422 197.17C249.4 200.236 251.378 203.301 253.356 206.367C262.215 220.099 271.276 233.699 280.337 247.298C283.105 251.452 285.873 255.606 288.635 259.763C296.294 271.293 303.955 282.823 311.614 294.354C317.08 302.581 322.546 310.807 328.011 319.034C318.807 318.915 309.604 318.795 300.401 318.675ZM375.342 283.894C399.884 283.835 425.19 282.713 449.207 277.44C467.502 273.424 485.874 265.147 500.841 253.775C497.702 265.732 493.317 280.69 484.051 289.355C480.8 292.395 476.546 294.462 472.542 296.408C472.207 296.57 471.873 296.733 471.542 296.895C465.24 299.972 458.776 302.724 452.27 305.339C451.326 305.718 450.377 306.101 449.426 306.486C438.801 310.776 427.717 315.252 416.488 317.308C413.092 317.929 411.362 317.319 408.534 315.281C404.002 312.014 399.884 308.119 395.828 304.282C395.633 304.098 395.44 303.915 395.246 303.732C388.44 297.298 381.82 290.657 375.342 283.894Z" fill="#15161B"/>
<path fill-rule="evenodd" clip-rule="evenodd" d="M250.298 1.42977C256.211 4.06524 259.332 11.3571 262.437 16.6302C266.163 22.9582 269.539 29.5852 271.442 36.7107C273.393 44.012 273.663 52.0173 272.798 59.5085C272.418 62.8045 271.526 65.8043 270.584 68.9575C269.576 72.328 271.145 74.2557 273.535 76.6323C278.501 81.569 284.753 85.3569 288.438 91.439C291.56 96.5923 295.19 97.5461 301.075 97.767C315.693 98.3156 330.018 97.8631 344.499 100.659C348.176 101.369 351.83 102.238 355.447 103.209C356.635 103.527 357.878 104.084 359.103 104.195C360.869 104.356 361.17 103.654 362.489 102.975C368.292 99.9879 375.657 102.857 381.457 104.496C396.099 108.633 409.914 114.265 423.185 121.726C437.515 129.784 452.793 136.039 466.991 144.336C480.708 152.352 493.03 162.44 505.824 171.797C518.834 181.314 531.175 191.612 543.206 202.335C554.835 212.698 566.858 222.87 577.26 234.498C586.743 245.1 594.235 257.65 599.261 270.987C600.938 275.438 599.906 278.242 594.662 276.773C594.198 281.276 590.841 283.158 586.586 282.195C587.892 285.973 590.877 291.091 589.169 295.156C586.898 300.561 580.393 296.627 577.203 294.521C577.55 298.866 579.398 305.92 575.809 309.427C570.248 314.86 560.862 307.936 556.923 303.875C546.886 293.528 540.467 280.724 531.555 269.561C520.511 255.726 508.069 242.682 495.583 230.157C494.597 229.168 483.483 217.244 481.89 218.865C486.74 226.894 490.615 235.733 497.395 242.404C500.613 237.884 502.945 240.111 503.549 244.65C504.275 250.106 505.084 255.852 504.078 261.32C502.1 272.082 495.306 282.319 488.167 290.379C480.698 298.809 471.426 305.228 461.478 310.395C455.847 313.32 450.199 316.061 444.141 317.981C441.428 318.842 438.711 319.839 435.924 320.437C433.245 321.011 430.348 320.971 427.868 322.271C450.081 332.876 474.657 337.344 496.923 347.676C502.297 350.169 513.089 356.651 507.636 363.936C503.418 369.573 493.831 369.772 487.539 370.897C492.168 375.266 491.478 379.323 485.394 381.702C482.949 382.657 480.401 383.1 477.794 383.168C476.024 383.214 472.966 382.584 471.536 383.976C477.052 386.504 484.574 386.35 489.108 390.791C493.734 395.322 488.209 398.967 484.075 400.715C478.637 403.013 471.159 405.437 465.627 402.666C461.255 400.475 457.218 400.95 452.383 400.374C447.398 399.781 442.469 398.713 437.66 397.278C419.348 391.815 402.486 381.703 386.315 371.756C370.159 361.819 355.091 350.529 341.157 337.646C337.72 334.467 334.857 330.685 331.344 327.608C327.646 324.37 323.775 324.079 319.045 324.133C308.291 324.255 297.559 322.341 286.811 323.603C302.259 335.246 318.583 345.501 334.833 355.958C341.016 359.937 347.516 365.243 354.786 366.978C357.975 367.74 364.818 368.245 365.877 372.177C366.652 375.046 364.198 375.528 362.728 377.085C360.598 379.339 363.596 380.093 365.793 381.027C368.562 382.204 371.09 382.584 374.106 382.272C378.723 381.796 382.345 381.954 386.648 383.932C393.408 387.039 400.666 388.711 407.444 391.749C410.251 393.008 410.989 396.759 412.343 399.305C414.473 403.307 416.934 407.118 419.35 410.951C423.903 418.177 427.832 425.61 434.293 431.374C439.954 436.425 446.259 440.9 452.408 445.341C462.012 452.279 474.229 460.858 471.143 474.467C468.09 487.92 454.146 486.474 443.521 484.071C439.049 483.06 432.938 480.232 428.429 481.561C424.539 482.709 421.86 482.879 417.824 481.964C413.144 480.901 408.434 480.209 403.693 479.477C393.754 477.94 383.733 475.405 374.236 472.081C369.681 470.487 365.876 468.359 362.289 465.102C361.223 464.136 360.448 462.764 359.031 462.775C357.826 462.785 355.962 464.924 355.03 465.666C352.087 468.009 348.832 469.967 345.473 467.179C343.328 465.399 341.42 461.527 344.521 459.694C346.898 458.288 351.24 459.899 352.944 457.241C354.729 454.459 350.739 450.422 349.49 448.16C345.719 450.719 340.17 455.896 335.797 451.612C332.294 448.18 336.191 446.097 339.422 445C343.416 443.641 348.037 443.816 346.002 438.476C344.845 435.443 342.995 432.725 342.697 429.415C342.471 426.898 343.197 424.477 343.215 421.98C343.247 417.518 338.449 413.675 334.269 412.618C331.717 411.972 330.959 414.153 329.391 415.824C327.088 418.281 324.145 420.12 321.211 421.723C316.398 424.352 311.346 426.439 306.301 428.56C302.959 429.965 297.05 431.807 299.437 436.067C302.929 442.303 294.743 439.318 291.792 437.903C284.926 434.612 277.993 431.469 271.213 427.998C257.309 420.876 244.515 412.082 232.233 402.456C220.177 393.007 208.405 382.969 197.451 372.253C192.145 367.061 187.072 361.6 182.555 355.703C177.702 349.37 173.615 342.502 168.671 336.231C163.54 329.723 158.47 323.409 155.164 315.732C152.102 308.619 148.626 300.679 148.571 292.864C148.51 284.231 148.544 276.476 151.399 268.195C152.59 264.74 154.021 261.141 156.097 258.12C156.694 257.251 159.826 254.282 159.184 253.098C159.22 253.164 152.068 254.257 151.32 254.328C146.572 254.782 141.795 253.968 137.064 253.527C123.077 252.221 108.958 252.71 95.0231 250.79C89.7694 250.066 84.0689 250.827 78.9407 249.492C76.5182 248.862 75.9215 247.475 74.1416 246.339C73.3291 245.821 72.4599 245.992 71.704 245.272C70.8191 244.429 70.6276 243.212 70.2361 242.112C68.1442 236.239 64.6195 230.994 62.5484 225.109C60.2198 218.49 60.3253 211.631 60.4945 204.712C57.0358 204.987 53.4028 205.01 50.1577 203.61C47.5387 211.841 36.2589 211.693 29.3249 211.068C20.6655 210.288 10.5123 209.473 6.12348 200.782C0.965769 190.568 1.3064 178.168 0.682497 167.021C-0.0504154 153.929 -0.259102 140.642 0.384168 127.543C0.931342 116.402 3.47001 104.836 10.6737 95.9942C17.0297 88.1925 28.0255 83.6265 36.6749 90.9069C43.1757 96.38 46.0141 106.237 46.4394 114.446C46.656 118.623 46.4609 122.375 51.6035 121.217C53.5806 120.772 55.3777 120.052 56.8357 122.08C58.1215 123.866 57.5313 126.449 55.9034 127.785C54.4283 128.997 51.5583 128.792 50.5478 130.593C49.5467 132.38 51.1302 135.241 53.0277 135.604C55.1884 136.018 56.8522 133.242 59.028 134.53C61.0216 135.711 59.9803 137.918 58.6443 139.21C57.0637 140.741 55.5413 141.06 56.6715 143.481C57.5378 145.34 59.2718 146.577 60.0499 148.547C61.9704 153.407 62.6043 160.39 60.4687 165.278C64.1749 165.69 73.1355 170.074 76.0506 166.528C77.1084 165.242 77.2346 163.352 78.3777 162.04C79.7223 160.495 81.6019 159.838 83.592 159.589C87.8468 159.057 92.1998 160.351 96.3326 161.185C103.184 162.569 110.077 163.781 116.959 165.004C130.806 167.465 144.782 169.177 158.594 171.82C172.378 174.459 186.019 177.795 199.65 181.117C206.799 182.859 213.914 184.817 221.116 186.326C227.846 187.735 234.859 188.774 241.124 191.755C239.885 184.095 236.429 177.056 234.275 169.65C232.059 162.034 231.437 154.431 232.687 146.587C233.834 139.401 235.532 132.417 239.199 126.066C240.681 123.498 242.313 120.94 244.448 118.869C245.966 117.396 248.104 116.171 249.305 114.415C250.489 112.681 250.237 112.279 248.105 111.481C246.92 111.036 245.843 110.902 244.719 110.28C243.686 109.707 242.797 108.668 241.582 108.47C238.779 108.013 234.682 110.729 232.115 111.696C228.61 113.015 224.99 114.202 221.249 114.604C208.972 115.922 194.413 108.801 185.997 100.174C183.188 97.2944 176.741 90.6738 179.361 86.2828C180.744 83.965 183.216 84.5158 185.291 83.463C188.541 81.8143 186.482 79.0792 184.925 76.9084C180.684 70.9949 177.839 64.2273 174.803 57.6476C171.712 50.951 167.475 44.9643 164.001 38.482C161.508 33.8307 158.618 28.6278 157.472 23.4516C156.072 17.13 160.351 16.2365 165.581 15.3307C182.126 12.465 198.415 8.61475 214.811 5.02979C221.347 3.60126 227.915 2.14906 234.493 0.930643C239.62 -0.018844 245.375 -0.763228 250.298 1.42977ZM395.512 395.794C386.98 396.233 378.396 398.128 378.123 408.083C379.158 426.974 391.443 441.094 404.422 453.624C407.696 456.785 410.901 460.136 414.457 462.985C416.55 464.661 418.831 465.428 421.095 466.756C421.65 467.082 422.609 468.172 423.125 468.338C424.348 468.734 424.454 468.289 425.648 468.163C428.249 467.889 428.73 469.702 430.708 471.185C434.46 473.998 441.196 473.587 445.603 474.467C449.672 475.279 465.872 481.147 465.144 472.695C464.432 464.437 455.624 460.424 449.417 456.736C440.766 451.596 431.849 446.031 424.565 439.026C417.64 432.364 413.119 423.25 408.469 414.954C405.57 409.784 404.767 405.4 403.931 399.623C403.576 397.179 403.54 396.379 401.149 395.967C399.301 395.648 397.377 395.698 395.512 395.794ZM365.828 394.421C360.9 396.018 357.177 399.971 354.724 404.442C353.468 406.73 352.748 409.038 352.333 411.597C351.804 414.853 350.588 418.331 351.498 421.605C353.149 427.547 357.481 434.035 360.884 439.133C364.71 444.866 369.678 451.302 375.716 454.816C381.527 458.2 388.544 459.101 393.934 463.277C393.451 460.981 391.297 459.286 389.607 457.853C387.143 455.766 384.988 453.693 382.895 451.208C378.265 445.712 374.417 439.759 371.951 432.979C369.561 426.409 368.193 419.013 368.498 412.009C368.642 408.676 369.215 405.135 370.655 402.094C371.616 400.062 373.32 398.333 374.057 396.196C375.742 391.297 368.287 393.625 365.828 394.421ZM257.748 232.027C250.867 232.809 244.045 234.13 237.113 234.771C223.101 236.064 208.557 236.83 195.86 243.523C177.384 253.263 156.107 274.877 162.514 297.645C170.084 324.539 186.266 348.859 206.526 367.891C219.46 380.041 233.626 390.989 247.835 401.596C261.579 411.856 277.48 418.585 291.649 428.177C292.609 414.043 301.49 401.081 311.992 392.089C317.635 387.258 323.558 382.629 329.886 378.727C332.994 376.809 336.214 375.189 339.492 373.588C341.981 372.373 344.73 370.564 347.574 370.429C347.529 368.345 342.301 367.575 340.859 367.085C335.882 365.393 331.106 362.801 326.496 360.289C316.46 354.822 307.187 348.15 297.9 341.521C293.361 338.28 288.749 335.137 284.259 331.828C280.215 328.849 276.63 324.974 272.285 322.438C267.815 319.829 262.531 319.284 257.544 318.322C251.553 317.166 245.658 315.793 239.638 314.779C229.586 313.086 220.098 307.166 210.831 303.132C207.716 301.775 202.962 300.599 200.584 298.03C198.429 295.703 198.992 292.109 201.754 290.514C206.505 287.772 214.423 291.348 218.915 293.118C227.226 296.392 235.478 299.322 244.297 301C256.376 303.297 267.856 307.598 279.952 309.849C292.995 312.276 306.07 314.932 319.332 315.827C316.082 309.388 310.695 304.038 306.499 298.213C301.685 291.532 296.878 284.846 292.105 278.134C283.694 266.302 274.314 254.413 267.921 241.335C265.729 236.851 263.571 231.365 257.748 232.027ZM320.212 404.43C318.297 404.737 316.852 406.651 315.55 407.917C311.521 411.834 307.576 415.712 304.295 420.305C309.372 418.161 313.512 414.424 318.406 411.968C320.169 411.082 326.397 409.108 325.142 406.641C324.436 405.256 321.621 404.205 320.212 404.43ZM343.509 388.654C338.539 392.046 333.364 395.079 328.123 398.028C331.799 399.425 335.47 401.353 338.487 403.885C339.867 405.043 342.703 408.433 344.698 407.581C346.553 406.789 347.56 402.201 348.458 400.545C350.756 396.305 353.972 392.301 357.429 388.958C352.235 385.481 348.754 385.075 343.509 388.654ZM301.555 204.002C297.577 205.109 293.63 206.319 289.655 207.435C281.719 209.663 273.608 211.525 265.32 211.525C264.192 213.601 267.422 216.986 268.415 218.568C271.02 222.724 273.245 227.181 275.607 231.483C280.615 240.602 286.079 249.368 291.973 257.938C297.928 266.596 303.307 275.665 309.406 284.219C315.308 292.499 321.801 300.543 328.195 308.448C353.107 339.25 387.828 360.492 421.953 379.574C431.518 384.922 441.483 389.635 452.076 392.555C456.45 393.762 460.911 394.783 465.36 395.681C468.35 396.285 473.325 397.636 476.078 395.702C467.434 392.277 456.108 390.956 449.126 384.329C444.804 380.226 449.544 377.166 453.951 376.403C462.478 374.928 471.316 378.643 479.687 376.233C477.449 372.128 471.019 372.324 467.107 371.27C462.16 369.937 461.977 367.438 466.686 365.738C472.482 363.646 479.164 364.781 485.204 364.396C488.152 364.208 500.509 363.715 496.777 358.052C493.839 353.596 486.689 352.347 482.009 350.703C475.443 348.398 469.064 344.799 462.377 343.013C455.836 341.265 449.172 340.192 442.631 338.346C435.804 336.421 429.083 334.281 422.595 331.392C410.089 325.821 398.493 318.258 387.931 309.576C377.048 300.629 367.507 290.377 358.729 279.381C354.11 273.597 349.714 267.645 345.222 261.764C340.881 256.086 335.974 250.674 332.5 244.405C328.658 237.472 323.679 231.143 319.7 224.234C317.544 220.49 315.224 216.818 313.214 212.993C311.786 210.274 310.813 206.287 308.881 203.924C307.064 201.703 303.889 203.353 301.555 204.002ZM117.809 291.862C119.142 293.081 118.92 293.583 118.663 295.13C118.138 298.302 117.558 301.414 117.314 304.632C116.478 315.637 118.03 327.05 119.744 337.92C121.456 348.765 125.571 358.785 131.913 367.755C138.057 376.446 145.474 383.37 155.245 387.634C156.922 388.367 163.565 391.053 163.135 393.531C162.812 395.395 159.364 394.341 158.124 394.075C140.56 390.312 125.676 374.429 116.8 359.645C113.125 353.525 110.761 347.302 108.732 340.537C108.435 339.549 104.182 325.553 105.618 325.377C104.378 315.685 104.007 303.901 108.588 294.93C110.299 291.58 114.308 288.666 117.809 291.862ZM87.1662 293.947C85.5634 301.253 86.0934 308.708 86.4469 316.109C86.5115 317.456 87.2817 321.612 85.0521 321.533C83.4765 321.477 82.2208 317.453 81.8343 316.422C79.4929 310.159 78.661 303.106 79.8306 296.506C80.2 294.416 80.7579 291.881 83.0556 291.155C85.0542 290.524 87.3433 291.652 87.1662 293.947ZM497.597 260.216C496.609 260.693 496.174 261.601 495.879 262.598C488.153 269.184 479.063 275.558 470.029 280.206C461.958 284.357 452.613 286.107 443.804 287.984C423.659 292.278 403.6 294.013 383.508 288.455C391.718 296.031 399.164 306.098 409.514 310.924C414.657 313.322 420.349 311.876 425.534 310.357C431.895 308.493 438.296 306.589 444.452 304.118C456.085 299.449 468.527 294.283 478.309 286.28C482.645 282.733 486.18 278.347 489.292 273.714C491.074 271.06 492.582 268.221 494.386 265.587C495.425 264.068 497.701 262.197 497.597 260.216ZM411.761 125.494C411.465 129.241 409.259 132.388 407.313 135.465C405.989 137.557 403.411 140.079 404.633 142.452C406.085 145.269 410.712 147.068 413.111 148.994C416.661 151.846 419.986 154.962 423.256 158.128C429.122 163.81 435.196 169.318 440.937 175.121C446.392 180.634 451.685 186.251 458.565 190.011C473.671 198.264 486.97 209.796 500.17 220.762C513.628 231.942 526.92 243.693 538.598 256.753C544.847 263.741 550.04 271.413 554.495 279.647C556.786 283.883 559.241 288.026 561.536 292.26C562.552 294.134 563.698 295.953 564.622 297.875C565.308 299.303 565.755 301.615 567.023 302.673C569.533 297.104 565.617 289.738 563.348 284.722C561.796 281.293 560.274 277.851 558.743 274.412C557.668 272.001 555.435 269.089 555.312 266.398C555.014 259.854 563.44 264.562 565.751 266.659C571.471 271.852 574.769 279.657 578.818 286.098C579.77 280.97 569.56 273.051 573.787 268.581C577.139 265.036 583.32 273.34 585.196 275.589C586.482 269.248 583.185 263.045 579.738 257.97C575.898 252.313 571.459 246.934 566.91 241.839C556.277 229.933 544.125 219.335 532.103 208.867C520.144 198.453 507.832 188.462 495.571 178.407C483.665 168.644 471.579 158.881 458.271 151.064C450.81 146.681 442.983 143.014 435.365 138.923C427.388 134.638 419.825 129.621 411.761 125.494ZM307.754 111.05C307.406 111.137 305.393 111.378 305.243 111.555C304.587 112.328 305.461 114.828 306.235 115.277C303.565 117.273 300.566 119.09 297.173 119.4C299.308 121.495 303.364 125.159 302.733 128.538C301.864 133.186 296.28 129.926 294.018 128.52C290.389 126.262 286.68 123.866 284.022 120.461C282.335 118.301 281.76 116.009 280.497 113.682C279.812 112.418 280.21 112.189 278.691 112.102C276.956 112.004 273.987 113.649 272.379 114.303C269.894 115.315 267.472 116.481 265.135 117.799C260.826 120.233 256.791 123.185 253.256 126.654C245.937 133.834 240.98 143.267 240.352 153.596C245.546 152.98 250.628 150.74 255.005 147.946C258.122 145.957 261.302 143.619 261.852 149.233C262.065 151.419 261.454 156.511 260.141 158.203C258.916 159.783 258.387 158.502 257.114 159.449C255.643 160.546 256.42 162.126 256.42 163.666C255.711 163.071 255.002 162.476 254.295 161.881C253.012 163.556 254.463 162.659 254.947 163.672C255.23 164.263 253.298 165.964 252.912 166.266C252.114 166.889 251.673 166.373 250.76 167.27C250.173 167.846 249.541 169.14 248.905 169.86C245.617 173.58 249.97 179.411 251.692 183.356C252.966 186.277 254.357 189.141 255.683 192.037C256.654 194.157 257.178 196.674 258.468 198.627C261.026 202.505 266.89 200.386 270.717 199.911C275.908 199.267 281.006 198.607 286.203 198.119C289.25 197.832 292.692 196.06 288.78 193.766C284.898 191.489 271.485 191.058 271.398 185.203C271.306 178.978 279.955 177.943 284.292 178.478C290.637 179.26 294.737 180.861 299.077 185.65C298.104 176.518 291.626 168.966 290.18 159.805C289.787 157.316 288.58 141.978 294.56 148.605C297.763 152.154 300.299 157.525 302.667 161.629C306.25 167.843 309.372 174.299 312.661 180.668C315.8 186.746 320.397 192.587 322.595 199.053C323.832 202.69 325.558 210.335 329.484 212.191C331.999 213.381 336.245 211.824 338.843 211.444C340.448 211.21 342.013 210.98 343.39 210.054C344.103 209.574 344.807 208.331 345.707 208.191C348.3 207.791 348.969 211.752 348.793 213.576C348.52 216.388 347.229 217.118 344.606 217.445C349.027 219.611 342.215 226.388 341.019 229.09C340.957 228.952 340.181 227.053 339.604 227.055C338.458 227.059 343.115 236.227 343.467 236.865C345.909 241.29 348.976 245.269 351.943 249.348C353.649 251.692 356.103 257.238 359.571 256.714C361.493 256.424 365.484 252.468 366.994 255.18C368.356 257.626 364.149 260.25 363.516 262.195C362.454 265.458 366.449 268.888 368.804 270.598C375.044 275.131 383.136 276.201 390.521 277.569C389.109 275.667 386.036 274.63 385.975 271.906C385.933 270.054 387.243 269.043 386.358 267.027C385.629 265.366 383.803 264.402 383.259 262.623C382.66 260.661 383.605 258.432 384.683 256.811C389.254 249.94 399.463 252.799 405.449 255.921C405.008 256.115 404.641 256.397 404.349 256.764L404.279 256.858L404.295 256.847C405.063 256.376 408.393 257.851 408.808 258.15C410.12 259.095 411.889 261.298 412.795 262.663C415.711 267.057 416.128 272.412 414.614 277.393C432.87 277.393 450.068 272.527 466.406 264.771C470.137 263.001 473.802 261.867 477.337 259.638C480.969 257.35 484.419 254.809 487.985 252.427C491.335 250.188 491.032 248.844 488.788 245.662C486.056 241.79 483.649 237.661 480.617 234.009C480.151 235.021 479.969 237.045 478.974 237.667C477.874 238.354 476.864 236.989 476.122 237.506C476.188 237.46 473.845 241.101 473.468 240.194C474.444 242.54 470.534 241.041 469.842 240.607C470.003 242.805 468.176 244.698 467.15 241.759C464.362 244.31 457.752 241.975 461.317 238.041C463.077 236.099 464.992 235.068 466.099 232.532C467.337 229.695 467.77 226.484 467.926 223.417C468.293 216.186 464.38 212.81 459.475 208.121C456.736 205.503 453.876 203.018 451.059 200.487C448.582 198.262 446.439 195.507 443.84 193.444C441.973 191.963 440.484 191.537 438.672 192.823C437.926 193.353 437.682 194.027 436.724 194.537C435.495 195.192 433.672 195.597 432.3 195.768C425.407 196.626 417.429 194.263 411.113 191.717C409.383 191.02 408.555 189.886 407.057 189.023C406.111 188.477 405.304 188.808 404.299 188.156C401.673 186.453 401.805 183.719 403.714 181.591C408.187 176.603 414.612 181.089 419.183 177.062C424.878 172.044 415.382 165.105 411.546 162.033C408.476 159.574 405.839 159.042 402.087 158.396C401.301 158.261 396.089 156.756 397.912 158.919C393.863 158.815 391.871 158.831 388.611 161.359C387.756 162.022 386.618 162.648 386.383 163.779C386.259 164.376 387.488 164.496 387.491 164.49C387.325 164.891 386.088 165.619 385.91 165.746C387.995 165.994 387.454 170.087 386.916 170.11L386.884 170.107L386.945 170.16C387.856 171.022 385.801 172.35 385.104 172.573C383.126 173.206 381.248 171.83 379.925 170.455C376.963 167.378 374.813 162.143 375.003 157.877C375.269 151.891 379.2 148.42 382.443 143.932C384.871 140.574 381.264 138.789 378.754 136.682C375.682 134.105 371.504 130.937 370.493 126.832C369.573 123.093 372.124 121.813 375.393 122.938C379.81 124.457 383.385 128.366 387.3 130.812C390.775 132.983 395.161 137.415 399.406 137.668C398.627 134.897 394.77 135.191 393.277 133.132C391.307 130.412 394.368 129.199 396.685 129.511C398.482 129.753 403.612 133.559 403.479 129.17C403.407 126.819 399.485 126.031 397.778 125.352C389.101 121.898 380.213 119.542 371.012 117.942C368.029 117.424 367.266 117.787 365.825 120.48C365.336 121.394 363.577 125.601 362.614 122.812C361.353 125.098 360.986 127.533 358.245 128.452C354.757 129.621 350.272 127.891 347.059 126.549C344.301 125.397 341.68 123.782 339.91 121.32C339.029 120.096 338.387 118.737 337.971 117.288C337.618 116.058 337.786 114.042 337.147 112.925C336.081 111.057 333.539 111.46 331.576 111.273C327.194 110.857 322.868 110.48 318.463 110.429C314.804 110.386 311.31 110.164 307.754 111.05ZM403.018 275.195C401.616 275.697 404.105 277.374 404.928 277.176C404.591 276.633 404.032 274.832 403.018 275.195ZM404.279 256.858L404.241 256.887C404.192 256.931 404.16 256.987 404.146 257.056C404.177 257.005 404.21 256.955 404.244 256.906L404.279 256.858ZM432.309 212.803C433.578 213.868 433.066 216.336 433.935 217.852C436.259 221.911 440.448 225.915 444.395 228.367C448.646 231.006 450.658 234.432 451.699 239.214C451.915 240.202 452.564 241.574 452.247 242.597C451.951 243.553 450.877 243.871 450.547 244.723C450.396 245.112 451.028 248.127 450.952 248.136C450.585 248.18 449.515 246.664 449.522 246.671C449.098 247.723 449.245 248.918 448.102 249.481L447.963 249.542L447.981 249.556C448.266 249.776 449.565 250.855 449.256 251.092C448.823 251.422 447.766 251.196 447.227 251.388C446.376 251.692 445.762 252.45 444.943 252.803C442.746 253.749 440.213 253.457 437.895 253.124C433.011 252.422 427.516 250.675 423.985 247.057C419.709 242.675 420.724 238.134 420.338 233.218C419.905 227.703 423.883 219.344 427.078 215.068C428.168 213.608 430.353 211.163 432.309 212.803ZM81.0182 169.895C80.7421 170.548 81.0175 171.566 80.8554 172.282C80.5284 173.734 79.6865 175.005 78.8761 176.223C77.3594 178.503 75.8333 180.593 74.7985 183.166C72.2577 189.482 69.9012 196.289 68.6842 202.986C66.0738 217.363 74.7892 229.221 75.2639 243.224C79.2662 239.01 85.3526 238.808 90.7755 238.796C97.9921 238.78 105.142 239.083 112.331 239.715C126.084 240.924 140.144 241.415 153.178 246.442C154.613 246.996 155.69 247.235 157.131 247.537C158.713 247.869 157.875 247.128 159.032 248.065C159.344 248.317 159.468 249.227 159.793 249.546C161.477 251.194 162.485 250.074 163.912 248.307C167.836 243.443 171.752 239.023 176.8 235.243C187.555 227.188 199.602 223.469 212.859 222.272C220.458 221.585 227.877 221.19 235.509 221.263C242.796 221.334 250.489 221.467 257.393 224.075C255.676 219.161 252.743 214.758 250.379 210.148C249.231 207.91 248.166 205.557 246.706 203.497C245.423 201.686 243.486 200.207 242.597 198.139C242.439 198.555 242.28 198.97 242.121 199.384C228.103 195.369 213.648 193.206 199.276 190.91C184.839 188.603 170.582 185.406 156.176 182.947C148.943 181.712 141.684 180.97 134.398 180.142C127.385 179.346 120.624 177.789 113.71 176.466C106.707 175.126 99.891 173.502 93.0051 171.656C90.1179 170.883 87.3849 169.815 84.5752 168.883C82.3341 168.141 81.825 167.982 81.0182 169.895ZM391.005 195.385C391.424 197.104 390.086 199.321 389.657 200.953C389.17 202.804 388.116 203.546 387.565 205.229C387.088 206.691 387.949 214.443 384.211 212.129C384.326 212.685 384.941 213.448 385.004 213.944C385.084 214.562 384.483 215.507 384.658 216.04C384.815 216.52 386.457 217.924 386.855 218.725C388.425 221.872 389.534 225.494 390.308 228.922C391.114 232.496 392.094 237.447 389.134 239.914C388.422 240.506 387.803 240.665 387.073 241.378C386.988 242.036 386.687 242.58 386.171 243.01C385.889 243.089 385.662 243.019 385.492 242.799C384.589 243.288 384.89 241.233 383.83 243.23C383.574 243.712 384.036 245.365 383.807 245.195C383.391 244.889 382.137 243.58 381.73 243.556C380.82 244.794 380.841 243.533 379.88 243.709C379.842 244.222 379.564 244.505 379.045 244.556C378.639 244.463 378.235 244.369 377.83 244.276C375.383 244.291 371.768 243.264 369.418 242.615C364.932 241.376 361.731 238.29 360.758 233.613C358.732 223.872 366.925 211.694 372.783 204.611C374.783 202.191 388.836 186.485 391.005 195.385ZM430.124 226.768C430.061 227.586 430.314 228.809 429.395 228.899C429.436 227.977 429.048 226.794 430.124 226.768ZM366.299 225.381C366.717 227.74 366.813 226.393 365.864 228.015C365.545 227.06 365.69 226.182 366.299 225.381ZM434.219 222.34C434.583 222.793 435.978 224.016 434.777 224.33C433.726 224.603 434.174 222.898 434.219 222.34ZM383.683 205.989C383.205 208.527 384.645 207.92 386.625 207.459C385.644 206.969 384.663 206.479 383.683 205.989ZM16.6883 103.604C7.20348 111.743 6.91735 125.974 7.21639 137.43C7.62301 152.995 8.56747 168.603 10.072 184.1C10.7519 191.102 12.7491 194.668 19.6608 197.014C27.1484 199.556 35.2133 199.064 42.9799 198.613C41.4947 187.066 38.5882 171.875 50.1706 164.19C51.2306 163.487 52.2001 162.968 53.4903 162.902C54.3422 162.858 55.5642 163.63 56.3731 163.235C58.0089 162.435 57.0731 160.171 56.5374 158.889C54.9087 154.994 51.8007 151.876 49.2792 148.571C46.1124 144.422 43.3915 144.534 38.6628 145.046C36.7774 145.251 29.3608 146.095 30.8209 142.07C31.8815 139.144 37.7083 139.876 40.0691 139.199C41.8583 138.685 42.2233 138.458 42.1466 136.629C42.0254 133.771 40.3868 132.996 37.8445 133.074C34.5744 133.173 28.9126 134.912 26.1896 132.34C22.3013 128.667 28.0678 126.095 30.9916 125.596C34.0523 125.074 38.1457 125.55 38.8521 121.761C39.5248 118.147 37.6186 113.774 36.1291 110.592C34.6877 107.514 32.7177 103.592 29.7101 101.743C25.466 99.1367 20.2302 100.564 16.6883 103.604ZM53.5017 171.601C49.6493 172.465 47.4326 177.482 46.9851 180.989C46.5527 184.382 46.8474 189.224 49.3352 191.831C52.6003 195.253 58.2922 195.023 61.8061 198.234C63.363 190.506 66.2416 183.069 70.0231 176.164C67.0369 175.342 64.1268 174.278 61.1822 173.324C59.028 172.626 55.8152 171.082 53.5017 171.601ZM300.793 188.249C301.657 188.988 301.93 189.212 302.153 190.372C300.102 190.502 300.72 189.843 300.793 188.249ZM321.135 133.281C324.341 133.364 325.84 134.402 328.412 135.938C330.245 137.033 332.469 135.855 332.469 138.637C337.702 134.524 347.46 145.143 351.129 147.925C354.998 150.859 358.808 154.312 359.237 159.548C359.363 161.099 359.042 162.688 359.275 164.232C359.451 165.395 360.187 166.557 360.062 167.764C359.914 169.162 358.732 169.98 358.459 171.294C358.352 171.815 358.72 172.86 358.491 173.281C356.146 177.582 353.139 181.11 347.993 181.536C343.51 181.906 338.557 180.306 335.29 177.178C332.391 174.404 330.663 170.246 329.912 166.357C329.782 165.685 330.029 164.144 329.807 163.575C329.485 162.746 329.001 162.732 328.601 162.061C327.542 160.283 326.022 156.931 327.396 154.976C324.007 155.742 321.431 148.48 320.166 146.362C319.218 144.777 316.931 143.535 316.297 141.993C315.426 139.877 318.554 138.969 317.471 137.496C316.89 136.707 313.777 137.244 314.082 135.267C314.366 133.439 319.911 133.249 321.135 133.281ZM386.79 170.037C386.821 170.076 386.852 170.099 386.884 170.107V170.107L386.873 170.097L386.79 170.037ZM377.843 154.203C378.137 153.95 379.711 152.356 379.896 153.551C380.048 154.531 378.314 154.203 377.843 154.203ZM230.882 30.0176C227.464 30.2263 224.418 33.916 221.872 35.853C218.071 38.7446 213.578 40.8673 209.099 42.4723C203.884 44.339 198.523 46.0006 193.169 47.4169C187.738 48.8541 182.081 49.1481 176.668 50.6412C179.346 55.5435 182.025 60.4466 184.704 65.3496C185.879 63.7325 185.478 61.9066 187.411 60.7442C188.753 59.9374 190.695 59.8269 192.211 59.5286C196.434 58.6975 201.067 57.9617 205.354 58.8215C208.119 59.3766 211.196 61.5058 208.577 64.479C206.924 66.355 203.366 65.8731 203.076 68.8528C202.798 71.7077 205.713 74.1603 205.038 77.1623C204.089 81.3819 199.873 80.1183 197.999 77.3903C196.327 74.9578 196.961 70.632 194.38 68.8779C192.84 67.8316 188.725 67.4544 187.067 68.3501C190.114 73.9739 196.036 80.9078 192.562 87.631C191.494 89.6963 189.162 90.4837 190.726 92.5132C192.528 94.854 197.731 96.7823 200.5 96.0659C203.093 95.3954 206.064 92.4738 208.981 93.9195C211.735 95.2843 209.783 97.6013 210.027 99.7448C210.759 106.201 224.001 102.519 227.596 101.662C231.202 100.803 234.965 98.7236 238.688 98.6383C242.199 98.5573 245.459 100.25 248.241 102.232C250.324 103.716 253.79 108.059 256.433 108.204C259.085 108.35 262.844 104.424 265.184 103.236C269.382 101.103 273.971 100.486 278.42 99.065C279.126 98.8398 282.212 98.2051 282.268 97.1746C282.32 96.1843 278.673 94.0178 278.053 93.5445C272.393 89.2223 268.247 83.2636 262.359 79.2161C259.733 77.4111 256.897 76.1389 253.83 75.3264C252.127 74.876 247.492 74.2686 247.37 71.8411C255.537 70.4728 255.741 60.283 252.297 54.5051C250.106 50.8305 246.707 49.0828 242.415 49.8731C236.194 51.0191 235.057 55.5722 233.632 60.9751C228.549 58.2098 223.008 51.4379 222.706 45.4706C222.371 38.8364 229.495 35.9835 230.882 30.0176ZM382.624 74.6035C391.194 76.1934 399.577 78.3125 407.83 81.1287C412.913 82.8635 420.308 84.3551 424.704 87.6095C425.987 88.5604 427.604 90.6516 426.433 92.3225C425.424 93.7632 422.953 93.3752 421.493 93.1508C414.858 92.1303 408.358 89.3535 401.794 87.8562C384.348 83.8775 366.451 82.0079 348.627 80.7343C343.712 80.3836 338.793 80.0803 333.878 79.7346C329.785 79.4478 325.286 79.5776 321.278 78.651C318.117 77.9203 317.329 75.5975 319.697 72.9821C322.004 70.4334 325.875 70.8307 328.967 70.3652C346.956 69.1906 364.957 71.3255 382.624 74.6035ZM352.811 53.7858C358.643 55.7952 351.827 56.7533 349.276 56.5425C348.411 56.4715 337.005 55.3398 337.005 55.6905C334.728 55.6905 328.704 57.4317 327.069 55.1297C325.313 52.6577 332.832 51.79 334.351 51.6803C340.194 51.2593 347.195 51.8517 352.811 53.7858Z" fill="#15161B"/>
</svg>
