<svg width="650" height="502" viewBox="0 0 650 502" fill="none" xmlns="http://www.w3.org/2000/svg">
<path fill-rule="evenodd" clip-rule="evenodd" d="M163.885 301.329C167.195 299.074 173.962 291 177.507 289.135C185.392 284.986 220.516 276.83 221.658 276.348C223.397 275.614 234.697 273.05 241.28 271.43C256.739 267.625 312.139 243.051 326.741 236.75C328.605 241.656 343.994 263.309 341.354 265.528C332.663 272.834 317.083 281.932 307.015 287.167C298.872 291.402 290.247 294.906 281.539 297.767C271.653 301.016 264.868 304.499 255.016 307.822C245.322 311.092 256.907 321.319 261.885 323.432C267.468 325.802 276.117 327.005 281.822 329.059C271.777 344.671 263.342 363.619 261.654 382.32C261.248 386.82 257.817 390.947 252.236 389.599C249.357 388.904 222.787 385.365 218.455 384.377C189.532 377.781 137.611 343.241 150.981 307.822C154.044 309.237 161.038 303.27 163.885 301.329Z" fill="#00B67A"/>
<path fill-rule="evenodd" clip-rule="evenodd" d="M180.066 113.413C182.226 113.231 187.813 108.915 184.882 106.732C181.924 104.53 179.799 111.911 180.066 113.413ZM67.5129 129.967C68.0778 129.867 67.8311 126.776 66.9423 126.382C64.1353 125.135 63.8985 129.819 63.8298 131.072C63.7447 132.653 63.5462 137.108 66.9593 135.887C68.8965 135.194 67.6943 131.152 67.5129 129.967ZM233.206 144.406C233.13 147.165 238.704 152.469 240.782 149.287C242.53 146.614 233.349 138.914 233.206 144.406ZM36.1505 82.185C37.7652 86.3048 45.7517 80.6908 46.0487 77.6691C46.6576 71.4809 36.0669 78.0681 36.1505 82.185ZM102.78 99.9456C106.499 99.6401 111.393 94.9114 114.98 93.145C117.407 91.9499 124.011 90.5252 124.729 87.811C125.354 85.4528 114.149 90.5004 113.192 90.949C108.797 93.0082 104.834 95.3559 102.78 99.9456ZM381.988 67.3392C384.953 65.0469 388.556 63.5682 392.356 63.6653C394.254 63.7135 398.213 64.9008 398.362 61.6189C398.604 56.2828 381.844 62.7906 379.225 63.8376C380.147 65.0057 381.068 66.1725 381.988 67.3392ZM197.055 275.302C194.88 271.69 190.969 269.602 188.027 266.521C189.105 271.58 186.675 276.08 185.005 280.698C189.023 278.899 193.038 277.101 197.055 275.302ZM574.726 352.29C575.924 348.279 577.125 344.29 578.526 340.341C580.094 335.918 580.874 335.536 577.12 332.443C574.006 338.33 570.89 344.217 567.775 350.106C569.993 351.048 572.307 351.966 574.726 352.29ZM252.344 61.9273C248.22 57.2787 228.892 56.9867 231.283 67.2464C232.118 70.8288 236.87 67.0231 239.847 66.1881C242.801 65.3587 251.167 65.2489 252.344 61.9273ZM251.635 127.742C251.136 126.556 250.137 122.274 248.656 121.936C247.213 121.608 241.518 126.099 240.448 126.784C235.108 130.206 229.903 133.887 224.7 137.514C226.692 137.514 228.501 136.804 230.482 136.789C232.835 136.769 234.523 137.736 236.817 137.184C241.747 136 247.469 130.537 251.635 127.742ZM256.978 21.6692C257.441 19.5429 281.606 25.9258 284.51 27.0946C286.092 27.7303 294.257 31.974 292.502 25.5781C291.504 21.9352 282.07 19.1583 279.047 18.1599C271.361 15.6231 263.257 13.8186 255.074 14.2371C253.485 14.3178 241.449 15.0123 246.475 19.8498C248.207 21.5158 254.414 20.9907 256.978 21.6692ZM262.268 313.81C266.77 316.025 271.367 317.719 276.073 319.451C278.163 320.221 281.42 322.236 283.726 321.73C285.615 321.314 286.221 318.438 287.213 316.513C290.841 309.468 295.173 303.786 300.545 297.977C298.05 296.159 285.389 304.183 282.256 305.367C279.12 306.553 276.161 307.747 273.091 309.164C270.201 310.498 264.498 311.691 262.268 313.81ZM341.986 253.762C348.548 250.793 354.767 245.528 360.148 240.813C366.327 235.401 371.867 229.728 376.39 222.723C373.668 222.862 367.659 231.618 367.591 222.085C367.556 217.223 374.22 212.433 376.289 207.923C371.144 205.018 366.428 222.375 360.525 218.168C354.838 214.114 363.811 200.176 365.54 195.778C362.204 193.559 343.199 218.401 340.448 221.579C338.728 223.569 334.659 226.218 333.688 228.539C333.109 229.921 333.026 234.305 333.306 235.576C333.888 238.233 336.836 241.416 338.149 243.891C339.811 247.024 341.257 250.279 341.986 253.762ZM613.251 343.325C607.577 335.316 613.438 331.823 618.052 325.175C621.742 319.858 625.137 313.996 627.476 308.058C633.326 293.206 638.605 279.397 641.494 263.686C637.518 265.501 635.032 272.409 633.043 276.049C630.368 280.943 628.015 286.079 625.042 290.82C619.479 299.692 614.018 309.156 606.942 316.847C603.736 320.332 601.021 324.252 597.322 327.393C595.632 328.827 592.399 330.005 591.154 331.799C589.979 333.492 591.293 334.574 590.847 336.597C590.389 338.673 588.289 340.886 587.388 342.884C586.205 345.509 585.103 348.14 583.783 350.707C582.342 353.506 581.949 354.97 581.56 357.705C581.136 360.696 582.437 361.007 579.825 363.763C584.559 365.85 589.292 367.937 594.025 370.024C595.622 370.729 597.22 371.433 598.818 372.138C599.154 371.506 599.491 370.875 599.828 370.244C601.129 368.981 602.325 365.865 603.069 364.196C606.179 357.232 609.691 350.241 613.251 343.325ZM156.17 309.703C142.73 345.087 189.959 374.881 219.032 381.47C223.059 382.382 226.988 383.577 230.997 384.557C235.368 385.625 239.248 385.413 243.611 385.86C247.082 386.215 248.736 388.897 252.007 389.636C257.472 390.871 257.138 386.763 257.529 382.363C259.189 363.703 268.712 345.699 278.791 330.129C274.187 328.481 269.625 326.684 265.08 324.88C261.19 323.337 255.235 318.997 251.054 318.767C247.962 318.599 243.25 321.239 240.246 322.398C235.245 324.328 230.228 325.972 225.016 327.288C215.9 329.59 205.757 332.727 196.324 332.965C193.604 333.033 186.145 334.3 184.188 332.619C180.457 329.415 185.636 326.744 188.76 325.6C207.377 318.782 227.144 315.884 245.814 308.894C255.422 305.297 264.93 301.28 274.598 297.736C282.932 294.681 291.66 291.977 299.714 288.22C310.35 283.259 321.031 277.08 330.241 269.799C332.085 268.342 335.947 266.178 337.211 264.067C338.323 262.209 338.185 264.063 337.953 261.809C337.788 260.191 335.807 257.997 334.993 256.468C331.957 250.767 329.214 244.911 326.908 238.877C312.217 245.178 298.24 253.755 283.765 260.489C269.196 267.268 252.762 272.05 237.175 275.863C230.541 277.486 222.915 278 216.831 281.207C214.246 282.569 211.69 284.146 208.922 284.934C208.104 286.503 207.299 286.81 206.506 285.856C206.009 285.298 205.367 285.063 204.579 285.15C202.885 285.437 201.158 286.236 199.574 286.851C191.558 289.958 183.882 293.85 176.272 297.821C172.665 299.701 168.965 301.554 165.513 303.703C163.663 304.854 162.005 306.016 160.491 307.597C158.675 309.493 159.108 311.052 156.17 309.703ZM458.6 99.6124C461.997 99.6677 465.093 97.8276 468.635 97.9304C474.204 98.0913 478.613 102.409 481.845 106.574C488.242 114.813 486.611 124.753 483.398 133.975C481.86 138.381 479.749 142.612 477.112 146.469C474.777 149.884 470.603 153.114 468.974 156.917C466.286 163.188 471.708 160.521 475.028 159.182C479.202 157.496 483.116 155.402 486.658 152.58C502.449 140.004 514.461 122.523 518.485 102.448C520.448 92.6531 520.297 81.2026 513.473 73.2084C507.236 65.8982 496.468 63.5101 487.263 64.8654C477.313 66.3313 468.295 70.546 460.193 75.9707C457.84 77.5471 455.685 79.2682 453.476 81.031C450.577 83.344 448.839 83.4042 449.565 87.0292C450.104 89.7242 451.571 92.517 452.517 95.1028C454.287 99.9463 453.641 101.199 458.6 99.6124ZM469.429 183.114L468.742 184.288C473.48 184.514 477.892 180.334 481.929 178.294C487.173 175.643 491.829 172.025 496.425 168.373C504.528 161.93 512.738 154.67 518.769 146.212C532.292 127.253 544.574 103.215 540.884 79.1775C536.907 53.2703 514.247 43.2976 490.102 46.7272C479.221 48.2726 469.507 53.1307 459.769 58.0627C454.86 60.5486 450.718 63.7745 446.221 66.8962C443.887 68.5173 441.758 68.7278 441.605 71.5617C441.491 73.6975 445.183 78.5275 446.181 80.4626C458.408 67.9899 471.584 57.6714 490.049 57.0335C512.015 56.275 525.005 77.1034 524.908 97.0486C524.814 116.609 516.378 135.424 502.929 149.482C496.817 155.87 490.99 160.997 483.485 165.659C479.744 167.984 476.984 170.07 472.801 171.614C469.843 172.706 470.151 172.13 469.396 174.869C468.755 177.194 469.409 180.7 469.429 183.114ZM350.068 448.863C349.782 452.388 349.066 455.858 348.268 459.296C347.982 460.531 346.369 464.429 346.652 465.816C347.119 468.111 346.498 466.636 348.508 467.832C350.605 469.082 353.046 469.007 355.342 469.386C356.759 469.621 361.951 472.064 362.824 471.678C364.351 471.004 364.303 468.625 365.978 467.682C368.26 466.396 371.624 467.498 373.776 468.504C379.533 471.188 383.488 476.746 389.057 479.788C398.948 485.19 410.685 488.181 421.719 489.415C427.697 490.083 433.815 491.256 439.719 489.856C444.37 488.752 450.416 488.853 452.944 483.863C430.473 477.683 396.176 470.12 387.291 444.333C382.461 448.712 374.39 446.354 368.553 445.749C362.132 445.084 356.394 445.239 350.521 442.312C350.092 444.613 349.96 446.523 350.068 448.863ZM151.112 289.15C161.69 289.788 171.718 284.782 178.228 276.337C179.83 274.256 181.473 272.133 182.435 269.669C182.644 269.044 182.852 268.419 183.061 267.795C184.071 266.07 183.628 265.256 181.735 265.353C180.668 263.89 177.963 263.398 178.733 260.747C179.312 258.746 181.451 258.714 183.309 258.084C182.384 256.529 181.83 255.749 180.505 254.366C177.062 257.463 170.814 263.542 168.395 256.426C167.232 253.01 169.278 249.746 168.771 246.451C168.563 245.088 166.835 241.607 165.834 240.792C160.501 236.451 152.821 238.248 147.163 240.803C143.264 242.564 142.425 243.391 141.789 247.428C141.143 251.534 140.543 255.638 139.827 259.732C142.167 258.512 142.593 255.878 144.119 253.981C144.69 255.022 145.262 256.064 145.835 257.105C146.641 256.653 147.393 256.676 148.09 257.177C149.219 258.913 148.509 261.487 148.162 263.307C151.927 262.956 153.518 267.157 149.723 268.858C145.791 270.62 144.017 265.815 143.884 262.704C142.417 264.456 140.91 263.518 139.887 264.418C138.865 265.319 138.463 267.195 138.099 269.25C137.502 272.626 135.973 277.497 137.388 280.884C139.488 285.914 146.184 288.532 151.112 289.15ZM457.63 127.572C454.131 132.44 448.163 138.812 446.915 144.692C450.77 142.43 458.921 131.545 461.02 140.216C462.226 145.193 456.044 151.124 454.525 155.943C460.604 153.943 464.935 147.678 468.728 142.843C473.565 136.679 478.504 128.553 479.739 120.714C480.737 114.37 476.337 108.458 469.799 107.836C466.459 107.519 462.971 108.049 459.745 108.824C458.273 109.176 456.078 109.614 454.765 110.402C453.116 111.393 452.891 113.71 451.337 111.782C449.274 115.672 447.21 119.561 445.147 123.449C447.2 122.704 451.391 119.541 453.635 119.868C456.913 120.347 457.586 125.107 457.63 127.572ZM129.915 32.3543C120.739 32.6248 111.148 34.5788 102.461 37.4834C100.304 38.2054 91.2035 40.7729 93.1202 44.4949C94.3869 46.9551 101.216 43.4787 103.281 42.8989C112.13 40.4139 121.242 38.7751 130.306 37.2796C132.5 36.9176 139.945 36.9534 140.329 34.0766C140.8 30.5664 132.507 32.3504 129.915 32.3543ZM379.646 432.719C374.672 433.326 369.897 433.099 364.919 432.49C360.729 431.977 356.463 430.262 352.294 430.262C352.294 434.724 351.991 434.752 356.699 435.707C359.985 436.374 363.318 436.749 366.639 437.214C372.486 438.031 378.977 440.326 384.896 439.147C384.753 438.372 384.299 433.143 383.686 432.625C383.341 432.335 380.148 432.724 379.646 432.719ZM299.262 102.552C300.653 103.438 303.85 106.972 305.507 107.034C304.915 102.943 300.351 95.8209 295.11 98.3486C293.826 98.9688 291.128 102.055 292.349 103.417C293 104.145 297.558 102.557 299.262 102.552ZM250.772 138.943C250.822 138.23 250.874 137.517 250.926 136.805C249.003 137.936 246.622 138.471 245.256 140.292C246.897 141.02 248.536 141.748 250.178 142.476C250.376 141.298 250.574 140.121 250.772 138.943ZM402.233 247.55C411.319 250.731 419.649 254.982 426.338 262.195C432.119 268.434 434.836 279.425 436.247 287.602C439.739 307.837 433.001 326.592 428.558 345.948C426.304 355.768 422.939 365.217 419.788 374.783C417.037 383.136 414.678 391.884 410.881 399.826C407.662 406.561 403.548 413.2 400.716 420.187C399.192 423.946 396.721 436.848 390.936 432.797C389.357 436.924 388.974 436.573 390.662 439.44C391.883 441.515 396.026 444.398 397.982 446.087C403.192 450.593 409.791 454.306 415.903 457.46C427.098 463.238 439.099 467.561 450.628 472.828C455.725 475.159 461.253 477.911 460.109 484.579C459.151 490.169 455.917 494.408 450.872 496.894C446.136 499.23 439.361 501.033 434.151 501.766C431.059 502.201 430.351 500.914 427.83 500.469C425.025 499.975 421.752 500.931 418.858 500.907C405.868 500.793 394.494 497.525 383.996 489.992C380.245 487.3 374.723 479.997 369.814 479.998C367.305 479.998 367.834 481.523 365.627 482.417C362.903 483.52 358.209 481.438 355.531 480.949C349.826 479.907 344.024 478.85 340.225 473.935C336.117 468.625 337.577 462.046 339.342 456.149C341.332 449.5 344.68 442.756 346.102 436.007C346.449 434.365 346.768 431.305 346.416 429.635C345.869 427.044 343.253 425.498 343.174 422.692C343.15 421.838 344.371 420.713 344.585 419.832C345.057 417.896 344.984 415.889 345.178 413.92C345.525 410.407 346.325 407.041 346.878 403.569C348.134 395.67 350.612 388.622 353.01 381.011C355.336 373.623 357.551 368.126 362.049 361.729C364.377 358.417 372.167 346.614 368.363 343.217C363.157 353.444 357.069 361.42 349.1 369.562C343.006 375.79 337.048 384.161 329.42 388.596C321.034 393.473 310.785 396.341 301.524 398.92C297.12 400.146 293.465 402.865 288.716 403.368C283.57 403.912 278.333 403.27 273.292 402.123C271.874 401.8 267.782 399.62 266.498 399.759C264.607 399.964 261.886 403.336 259.811 403.954C254.759 405.461 251.309 402.583 247.477 399.923C243.318 397.035 242.06 396.317 237.262 395.969C231.384 395.545 225.668 393.473 219.887 392.204C209.722 389.974 201.082 385.455 191.843 380.723C181.252 375.301 172.193 367.824 164.211 358.99C152.476 346.004 136.133 310.018 155.303 297.419C144.017 295.886 133.682 290.958 132.306 278.185C131.587 271.502 132.94 264.098 134.621 257.655C135.388 254.714 136.302 251.79 137.178 248.879C137.838 247.896 138.188 246.821 138.224 245.651C138.629 244.137 138.045 243.382 136.472 243.389C133.5 239.913 131.265 236.845 130.665 231.911C130.476 230.347 130.306 227.95 131.419 226.62C131.934 226.085 132.555 225.728 133.281 225.549C135.023 225.649 135.515 224.79 134.758 222.975C135.603 220.403 134.349 218.399 137.536 217.326C138.558 217.543 139.575 217.781 140.588 218.039C141.881 218.628 142.722 218.201 143.113 216.761C146.115 215.586 144.73 213.849 148.81 215.361C151.279 216.276 153.628 217.852 155.427 219.771C157.682 218.323 152.552 209.374 152.382 206.519C151.975 199.788 154.758 194.224 158.378 188.696C165.415 177.953 175.236 168.715 184.922 160.403C203.474 144.486 222.963 129.332 243.91 116.651C235.269 110.649 225.173 109.022 214.891 111.811C205.411 114.383 197.728 119.054 189.002 123.139C180.918 126.922 172.338 128.476 169.761 118.152C166.873 106.587 176.086 102.294 184.351 97.1081C182.287 95.5692 175.494 96.6693 172.924 96.8515C167.201 97.2562 161.727 98.5485 156.166 99.6911C153.499 100.238 151.048 100.115 148.406 100.652C144.477 101.449 140.375 102.342 136.401 103.478C126.945 106.183 117.559 110.287 109.389 115.817C102.327 120.595 97.4271 127.341 91.7373 133.553C85.2486 140.638 79.0307 147.608 69.4111 150.201C64.9065 151.416 59.6221 152.518 56.4288 148.495C53.4574 144.754 53.2915 140.245 53.3894 135.671C53.6041 125.566 58.4852 114.648 64.1629 106.392C70.3262 97.4292 78.5813 92.2965 86.3806 85.0827C75.1073 85.8887 64.2125 91.8308 53.8451 95.9385C51.6633 96.8033 49.461 97.7751 47.2672 98.5747C44.928 99.4281 43.3785 98.9057 41.1372 99.2963C36.0229 100.189 31.6295 102.344 26.6546 98.9078C17.2422 92.4071 26.6723 79.1824 33.1529 75.1243C42.1792 69.4728 51.3621 64.7144 61.3063 60.6833C55.9227 54.8439 60.5202 46.5106 65.4828 42.3681C71.7609 37.1262 79.7558 34.1224 87.3212 31.3164C93.3038 29.0971 99.18 26.9663 105.395 25.6307C111.929 24.2272 119.569 22.0826 126.199 22.2883C132.417 22.4813 137.93 21.3858 144.227 21.2106C149.467 21.0649 154.719 21.191 159.958 21.0552C174.053 20.691 188.201 21.6417 201.977 22.6554C191.063 -9.26229 262.957 0.594533 278.296 4.76361C292.235 8.55282 308.207 12.9482 319.915 21.9389C324.875 25.7469 329.586 30.0763 333.988 34.519C340.48 41.0738 344.075 49.6581 347.509 58.1308C356.221 53.8636 364.55 49.2132 374.081 47.0971C383.151 45.0845 392.441 42.3562 401.564 40.8357C408.5 39.6792 418.568 38.8948 424.405 43.7922C430.745 49.1118 434.048 57.39 437.832 64.4791C456.007 47.2339 476.279 34.6529 502.192 35.4895C527.548 36.3083 544.222 58.2052 547.296 81.9327C550.682 108.079 539.035 135.399 523.248 155.646C516.169 164.726 508.844 173.496 499.316 180.27C494.591 183.628 489.606 187.306 484.425 189.928C481.842 191.236 479.017 192.416 476.305 193.422C475.081 193.877 473.821 194.332 472.548 194.64C468.913 195.522 469.619 194.344 468.267 197.526C467.17 200.11 467.305 204.555 466.835 207.391C466.298 210.631 465.979 213.917 465.196 217.114C463.838 222.655 462.425 228.059 460.724 233.471C457.505 243.711 453.172 254.033 447.866 263.374C452.366 265.328 458.669 265.526 463.478 266.118C468.683 266.758 473.896 268.105 479.303 269.617C490.136 272.646 499.818 275.203 510.12 279.738C520.816 284.446 530.348 291.477 540.647 297.072C550.117 302.218 559.689 308.662 568.485 314.839C570.577 316.309 571.873 317.586 573.539 319.447C575.243 321.348 575.785 321.72 577.821 323.368C578.74 324.11 581.41 327.856 582.459 327.994C584.336 328.242 584.048 326.841 585.521 324.885C588.599 320.8 592.892 317.636 595.948 313.448C598.497 309.956 601.155 306.42 603.879 303.417C610.473 296.15 615.936 288.095 620.624 279.383C623.063 274.847 625.632 270.531 628.282 266.251C630.919 261.989 635.608 256.365 640.861 256.616C640.439 254.446 639.097 254.085 641.413 252.758C642.904 251.903 645.808 253.281 646.957 254.149C650.004 256.448 650.134 260.908 649.943 264.259C649.448 272.893 647.642 281.416 645.124 289.581C642.097 299.395 638.303 308.053 634.163 317.421C630.867 324.883 626.774 334.75 618.572 338.155C624.081 346.021 621.435 352.429 617.753 360.779C615.063 366.884 611.509 373.191 606.095 377.231C599.994 381.784 593.375 377.921 586.994 374.911C583.139 373.093 571.352 368.803 573.749 363.208C570.805 362.815 568.952 360.676 566.272 360.018C563.435 359.321 563.923 360.473 560.921 360.905C558.618 361.237 555.176 359.175 553.009 358.437C549.388 357.206 545.779 355.943 542.163 354.698C531.988 351.193 521.984 347.742 511.708 344.935C492.589 339.711 473.234 336.747 454.182 332.082C450.362 331.147 446.565 330.245 442.589 329.496C441.768 329.341 437.507 329.104 436.99 328.225C436.083 326.684 438.87 318.065 439.109 316.309C440.68 304.777 440.167 292.154 437.954 280.754C437.036 276.015 432.932 269.878 432.968 265.253C432.992 262.149 435.742 258.761 437.357 255.95C441.35 249 445.535 241.49 448.493 234.257C453.022 223.193 455.796 210.703 457.797 198.853C458.839 192.674 460.051 185.977 460.335 179.728C460.552 174.964 460.161 169.967 460.852 165.088C458.216 165.338 454.485 166.704 452.11 165.242C449.111 163.397 448.306 158.128 448.689 154.982C438.421 156.773 438.762 147.036 439.397 139.421C420.839 139.421 444.606 111.845 447.575 105.923C448.94 103.201 448.899 106.258 448.297 102.048C448.032 100.197 446.767 98.1458 446.051 96.4439C444.492 92.7289 442.806 89.0706 441.004 85.4662C437.199 77.8533 432.889 70.4978 428.184 63.4052C423.95 66.3561 420.133 69.8492 416.596 73.5968C418.865 67.6639 425.796 60.314 422.831 53.5772C420.084 47.3324 410.907 47.7654 405.487 48.9071C390.759 52.0121 376.635 56.5345 362.605 61.7706C366.951 64.2629 373.605 62.3377 377.923 60.4323C383.27 58.0719 389.02 55.596 394.783 54.3456C399.808 53.2554 406.409 53.6275 404.957 60.3969C403.779 65.8819 398.415 71.1641 394.875 75.2654C387.076 84.3009 377.296 91.2957 367.69 98.2848C357.363 105.798 347.414 113.961 336.957 121.256C318.054 134.444 297.73 145.906 278.2 158.217C268.052 164.613 256.552 169.761 245.546 174.501C233.439 179.716 221.832 185.3 209.271 189.419C202.295 191.707 195.381 193.59 188.527 196.193C184.231 197.824 176.749 201.093 173.91 196.249C168.145 186.412 189.008 173.475 194.726 167.461C198.67 171.291 179.22 185.565 180.743 191.142C181.938 195.525 186.565 189.865 188.799 188.671C192.409 186.74 196.685 185.77 200.314 183.567C207.756 179.049 216.579 173.838 218.278 164.498C217.096 163.25 217.111 162.098 218.323 161.042C218.862 160.401 219.29 159.696 219.606 158.928C220.135 157.46 220.348 155.622 220.632 154.065C221.469 149.465 219.366 145.159 221.332 140.657C209.862 149.347 198.838 159.164 187.95 168.571C178.184 177.01 167.994 188.06 164.405 200.652C163.946 202.265 163.182 204.095 163.266 205.798C163.429 209.141 163.763 208.42 166.455 209.494C169.149 210.57 173.071 210.477 175.967 210.591C177.618 210.655 184.991 208.907 183.526 212.53C182.681 214.619 177.569 214.54 175.739 214.733C171.146 215.218 168.655 214.72 170.831 219.699C171.806 221.93 173.783 223.442 175.333 225.169C179.648 229.974 181.991 237.344 185.385 242.989C189.252 249.42 193.502 255.536 198.018 261.526C199.882 263.997 202.373 268.642 204.956 270.405C207.369 272.052 204.53 271.916 208.537 271.247C210.284 270.956 211.867 269.82 213.538 269.413C223.527 266.979 233.795 264.236 244.126 261.232C257.34 257.39 271.207 254.113 283.814 248.58C295.108 243.622 306.318 237.719 317.73 232.698C321.063 231.233 324.392 230.261 326.982 227.564C330.109 224.309 332.697 220.048 335.581 216.549C340.485 210.597 345.006 204.543 350.284 198.903C354.214 194.706 361.178 186.905 366.721 185.229C377.255 182.047 371.617 198.091 370.255 202.147C372.732 202.709 374.033 199.532 376.939 200.446C380.419 201.541 380.779 206.168 381.214 209.068C381.33 209.84 380.284 211.284 380.602 211.973C380.71 212.208 382.981 213.55 383.419 214.173C385.009 216.433 384.696 219.182 384.094 221.62C380.976 234.248 369.896 243.468 361.747 252.783C365.392 252.093 368.095 250.016 371.537 248.986C374.767 248.019 378.014 248.07 381.27 247.793C384.678 247.503 387.952 246.227 391.44 246.162C395.1 246.094 398.603 247.136 402.233 247.55Z" fill="#15161B"/>
<path fill-rule="evenodd" clip-rule="evenodd" d="M16.8253 133.97C14.8157 135.283 14.2493 136.572 14.1799 139.602C14.1521 140.845 14.2378 145.481 15.9747 145.306C17.6047 145.142 16.8253 135.564 16.8253 133.97ZM6.44454 141.521C7.38091 131.809 10.934 121.934 19.2925 115.883C21.3596 114.387 23.698 114.44 25.9635 113.496C27.325 112.929 29.4761 110.292 31.0219 110.604C36.7119 111.755 30.1382 119.315 29.1755 121.304C26.1922 127.466 26.3937 132.88 26.4828 139.528C26.5506 144.579 27.6003 153.096 25.0534 157.669C22.3385 162.538 16.45 159.376 13.1631 156.494C9.01477 152.856 5.88173 147.062 6.44454 141.521Z" fill="#15161B"/>
<path fill-rule="evenodd" clip-rule="evenodd" d="M106.332 170.221C106.332 175.64 110.73 171.971 110.574 168.116C110.343 162.441 106.127 165.936 106.332 170.221ZM129.716 140.261C124.902 144.591 121.189 147.02 120.261 153.677C119.558 158.72 120.256 163.715 120.286 168.794C120.337 177.309 113.461 186.26 106.062 176.5C100.665 169.381 102.601 158.187 107.002 151.032C109.311 147.279 112.608 143.565 116.417 141.226C119.281 139.465 127.339 136.001 129.716 140.261Z" fill="#15161B"/>
<path fill-rule="evenodd" clip-rule="evenodd" d="M62.4844 271.483C61.9265 272.804 60.6159 278.195 63.2896 276.976C65.6493 275.899 64.1204 272.325 62.4844 271.483ZM48.3595 254.838C47.9469 252.811 48.1149 240.101 51.6159 241.055C54.3654 241.802 54.8198 248.307 55.9397 250.571C60.1112 259.003 69.6854 264.253 72.9872 272.956C76.6724 282.674 65.5303 282.976 59.6179 279.04C52.6174 274.38 48.5672 262.97 48.3595 254.838Z" fill="#15161B"/>
<path fill-rule="evenodd" clip-rule="evenodd" d="M39.7777 202.726C41.2967 200.675 41.4505 199.579 40.5843 197.765C39.4771 198.969 39.6735 200.69 39.7777 202.726ZM40.8771 211.902C32.9566 212.789 32.5601 198.193 33.9164 193.182C34.9966 189.191 37.3188 184.902 39.7096 181.65C40.1924 180.994 44.7714 175.097 45.6688 175.083C49.1137 175.028 48.1674 178.92 47.7953 180.369C46.625 184.934 46.1615 188.749 46.4762 193.81C46.8143 199.225 49.3788 212.082 40.8771 211.902Z" fill="#15161B"/>
<path fill-rule="evenodd" clip-rule="evenodd" d="M400.491 85.4982C389.166 94.9958 378.414 105.278 366.1 113.586C360.074 117.652 353.775 121.248 347.762 125.38C344.699 127.484 341.575 129.369 338.178 130.915C335.176 132.282 333.214 132.46 335.704 129.216C337.369 127.049 341.099 125.539 343.367 123.999C346.856 121.627 350.151 118.996 353.821 116.891C360.292 113.179 366.723 110.182 372.687 105.63C377.981 101.59 383.443 97.6461 388.495 93.3527C390.662 91.5119 397.846 83.0598 400.491 85.4982Z" fill="#15161B"/>
<path fill-rule="evenodd" clip-rule="evenodd" d="M400.72 119.793C405.813 124.149 393.07 136.085 390.164 138.79C387.1 141.643 383.725 144.187 380.392 146.714C379.219 147.605 372.818 153.561 371.193 153.08C367.988 152.131 372.196 148.267 373.291 147.259C376.83 143.996 380.445 140.829 383.906 137.478C387.027 134.458 390.406 131.662 393.425 128.544C395.869 126.019 397.924 121.739 400.72 119.793Z" fill="#15161B"/>
<path fill-rule="evenodd" clip-rule="evenodd" d="M23.391 295.411C22.0613 292.329 19.6797 295.75 20.8871 297.289C22.029 298.746 23.221 296.003 23.391 295.411ZM15.5939 289.326C16.3067 284.795 17.9542 282.277 22.2047 286.145C25.1255 288.802 30.9997 296.359 30.4423 300.479C29.7106 305.882 23.7591 304.349 20.674 301.524C17.5117 298.627 16.1156 293.344 15.5939 289.326Z" fill="#15161B"/>
<path fill-rule="evenodd" clip-rule="evenodd" d="M24.9083 378.499C19.7014 378.103 15.2591 374.105 13.0479 369.421C11.1874 365.481 9.42646 359.131 15.9627 361.201C20.2226 362.551 36.6445 379.135 24.9083 378.499Z" fill="#15161B"/>
<path fill-rule="evenodd" clip-rule="evenodd" d="M88.0116 352.815C83.9876 353.731 80.0075 351.081 77.5329 348.093C75.9933 346.231 72.4102 339.706 74.2156 337.021C76.732 333.274 80.5313 340.804 81.8419 342.295C83.8976 344.629 90.6201 349.093 88.0116 352.815Z" fill="#15161B"/>
<path fill-rule="evenodd" clip-rule="evenodd" d="M91.6359 250.927C88.4816 249.463 85.5534 247.701 84.2846 244.205C83.478 241.979 82.8003 235.302 86.3828 235.333C90.5266 235.37 100.015 250.259 91.6359 250.927Z" fill="#15161B"/>
<path fill-rule="evenodd" clip-rule="evenodd" d="M69.5217 181.464C73.745 181.387 74.7451 183.716 75.332 187.063C75.7311 189.334 77.6655 197.044 75.6567 198.623C72.7859 200.88 68.2189 195.709 67.296 193.679C65.3935 189.5 68.024 185.389 69.5217 181.464Z" fill="#15161B"/>
<path fill-rule="evenodd" clip-rule="evenodd" d="M142.091 412.639C144.148 413.575 148.826 415.649 147.038 418.869C145.169 422.236 139.802 418.964 137.798 417.492C136.959 416.876 131.627 412.845 131.85 411.493C132.32 408.619 139.67 412.369 142.091 412.639Z" fill="#15161B"/>
<path fill-rule="evenodd" clip-rule="evenodd" d="M6.61087 202.378C8.01606 205.896 9.59782 217.985 2.19816 211.457C-0.0599663 209.465 -0.400774 206.977 0.377241 204.241C1.50223 200.277 3.13942 201.063 6.61087 202.378Z" fill="#15161B"/>
<path fill-rule="evenodd" clip-rule="evenodd" d="M398.746 157.361C397.107 154.013 401.152 151.854 403.314 149.697C404.726 148.287 410.661 140.644 412.606 141.076C416.609 141.964 400.714 155.868 398.746 157.361Z" fill="#15161B"/>
<path fill-rule="evenodd" clip-rule="evenodd" d="M69.4685 399.843C73.3295 399.224 74.2304 403.512 76.7177 405.381C77.7845 406.184 81.4464 406.888 80.7099 408.591C78.7748 413.061 69.2792 402.849 69.4685 399.843Z" fill="#15161B"/>
<path fill-rule="evenodd" clip-rule="evenodd" d="M102.072 298.555C104.726 297.444 112.386 303.411 110.186 305.989C106.898 309.846 102.259 300.665 102.072 298.555Z" fill="#15161B"/>
<path fill-rule="evenodd" clip-rule="evenodd" d="M158.011 384.887C156.077 385.079 147.913 382.513 150.938 379.077C153.061 376.664 158.705 382.702 158.011 384.887Z" fill="#15161B"/>
<path fill-rule="evenodd" clip-rule="evenodd" d="M60.2508 368.401C58.3306 369.168 51.4038 367.589 53.5814 364.581C55.6561 361.717 60.2536 366.023 60.2508 368.401Z" fill="#15161B"/>
<path fill-rule="evenodd" clip-rule="evenodd" d="M116.958 381.379C119.203 381.146 120.825 382.499 121.211 384.792C118.402 385.192 117.536 384.525 116.958 381.379Z" fill="#15161B"/>
<path fill-rule="evenodd" clip-rule="evenodd" d="M408.997 48.5485C409.945 48.5527 410.892 48.5577 411.832 48.5619C410.882 48.557 409.94 48.5527 408.997 48.5485Z" fill="#15161B"/>
<path fill-rule="evenodd" clip-rule="evenodd" d="M394.111 245.963C392.693 245.964 391.275 245.967 389.858 245.968C391.277 245.965 392.694 245.964 394.111 245.963Z" fill="#15161B"/>
<path fill-rule="evenodd" clip-rule="evenodd" d="M200.698 14.8856C200.633 16.3049 200.568 17.7242 200.501 19.1386C200.565 17.7181 200.632 16.3012 200.698 14.8856Z" fill="#15161B"/>
<path fill-rule="evenodd" clip-rule="evenodd" d="M639.939 255.889C640.391 257.466 639.729 257.728 637.95 256.673C638.612 256.411 639.276 256.151 639.939 255.889Z" fill="#15161B"/>
<path fill-rule="evenodd" clip-rule="evenodd" d="M599.673 379.574C600.385 379.578 601.096 379.583 601.8 379.588C601.086 379.583 600.38 379.578 599.673 379.574Z" fill="#15161B"/>
<path fill-rule="evenodd" clip-rule="evenodd" d="M464.995 265.476C463.806 266.382 462.624 266.509 461.451 265.428C462.632 265.445 463.813 265.46 464.995 265.476Z" fill="#15161B"/>
<path fill-rule="evenodd" clip-rule="evenodd" d="M438.459 144.602C438.429 145.785 438.399 146.967 438.368 148.146C438.397 146.962 438.429 145.782 438.459 144.602Z" fill="#15161B"/>
<path fill-rule="evenodd" clip-rule="evenodd" d="M499.728 35.2289C498.546 35.2282 497.364 35.2268 496.183 35.2253C497.366 34.783 498.547 34.9283 499.728 35.2289Z" fill="#15161B"/>
<path fill-rule="evenodd" clip-rule="evenodd" d="M153.108 20.8064C151.927 20.8759 150.745 20.9453 149.564 21.0148C150.745 20.9453 151.927 20.8759 153.108 20.8064Z" fill="#15161B"/>
<path fill-rule="evenodd" clip-rule="evenodd" d="M182.17 21.0312C181.225 20.9511 180.279 20.8703 179.335 20.7902C180.279 20.8703 181.224 20.9511 182.17 21.0312Z" fill="#15161B"/>
<path fill-rule="evenodd" clip-rule="evenodd" d="M197.765 22.1544C196.82 22.5067 195.875 22.7151 194.929 22.1594C195.875 22.158 196.82 22.1558 197.765 22.1544Z" fill="#15161B"/>
<path fill-rule="evenodd" clip-rule="evenodd" d="M113.413 24.0953C112.231 24.3356 111.05 24.5759 109.869 24.8141C111.051 24.5759 112.232 24.3356 113.413 24.0953Z" fill="#15161B"/>
<path fill-rule="evenodd" clip-rule="evenodd" d="M439.171 312.596C439.138 313.306 439.105 314.015 439.074 314.722C439.108 314.011 439.139 313.303 439.171 312.596Z" fill="#15161B"/>
<path fill-rule="evenodd" clip-rule="evenodd" d="M48.5353 255.18C48.5495 255.654 48.5629 256.127 48.5757 256.598C48.5601 256.123 48.5487 255.651 48.5353 255.18Z" fill="#15161B"/>
<path fill-rule="evenodd" clip-rule="evenodd" d="M644.33 252.637L640.786 252.655C641.964 251.775 643.146 251.887 644.33 252.637Z" fill="#15161B"/>
<path fill-rule="evenodd" clip-rule="evenodd" d="M401.909 247.617C400.962 247.461 400.017 247.305 399.073 247.149C400.017 247.305 400.964 247.461 401.909 247.617Z" fill="#15161B"/>
<path fill-rule="evenodd" clip-rule="evenodd" d="M142.476 412.532C141.294 412.302 140.113 412.071 138.931 411.842L142.476 412.532Z" fill="#15161B"/>
<path fill-rule="evenodd" clip-rule="evenodd" d="M381.031 209.106C381.009 208.396 380.987 207.687 380.965 206.979C380.987 207.689 381.009 208.398 381.031 209.106Z" fill="#15161B"/>
<path fill-rule="evenodd" clip-rule="evenodd" d="M156.652 21.0413C155.943 20.9542 155.234 20.867 154.526 20.7798C155.234 20.867 155.943 20.9542 156.652 21.0413Z" fill="#15161B"/>
<path fill-rule="evenodd" clip-rule="evenodd" d="M272.901 3.51188C272.192 3.2971 271.483 3.08233 270.774 2.86755C271.483 3.08233 272.192 3.2971 272.901 3.51188Z" fill="#15161B"/>
<path fill-rule="evenodd" clip-rule="evenodd" d="M357.252 481.609C357.726 481.638 358.201 481.667 358.67 481.696C358.193 481.667 357.722 481.638 357.252 481.609Z" fill="#15161B"/>
<path fill-rule="evenodd" clip-rule="evenodd" d="M31.8976 100.98C32.6093 100.999 33.3209 101.018 34.0241 101.037C33.3089 101.018 32.6032 100.999 31.8976 100.98Z" fill="#15161B"/>
<path fill-rule="evenodd" clip-rule="evenodd" d="M507.525 35.9209C506.343 35.838 505.162 35.755 503.981 35.6714C505.163 35.755 506.343 35.838 507.525 35.9209Z" fill="#15161B"/>
<path fill-rule="evenodd" clip-rule="evenodd" d="M133.97 32.6022C132.312 32.605 130.656 32.6078 129.008 32.6107C130.669 32.6078 132.319 32.605 133.97 32.6022Z" fill="#15161B"/>
<path fill-rule="evenodd" clip-rule="evenodd" d="M468.859 178.626C468.881 179.809 468.904 180.992 468.927 182.17C468.906 180.987 468.885 179.806 468.859 178.626Z" fill="#15161B"/>
<path fill-rule="evenodd" clip-rule="evenodd" d="M382.061 432.411C381.113 432.397 380.167 432.381 379.226 432.366C380.176 432.379 381.119 432.396 382.061 432.411Z" fill="#15161B"/>
<path fill-rule="evenodd" clip-rule="evenodd" d="M482.716 56.8443C484.133 56.6869 485.55 56.5296 486.969 56.3722C485.608 57.5758 484.138 56.7748 482.716 56.8443Z" fill="#15161B"/>
<path fill-rule="evenodd" clip-rule="evenodd" d="M374.264 432.782C373.553 432.755 372.843 432.729 372.138 432.703C372.851 432.73 373.557 432.756 374.264 432.782Z" fill="#15161B"/>
<path fill-rule="evenodd" clip-rule="evenodd" d="M349.755 445.147C349.791 446.331 349.827 447.514 349.863 448.692C349.828 447.506 349.792 446.327 349.755 445.147Z" fill="#15161B"/>
<path fill-rule="evenodd" clip-rule="evenodd" d="M457.906 100.369C458.852 100.282 459.797 100.194 460.742 100.106C459.879 100.771 458.866 100.382 457.906 100.369Z" fill="#15161B"/>
<path fill-rule="evenodd" clip-rule="evenodd" d="M148.146 288.944C149.091 289.118 150.037 289.291 150.982 289.464C150.037 289.291 149.091 289.118 148.146 288.944Z" fill="#15161B"/>
<path fill-rule="evenodd" clip-rule="evenodd" d="M295.584 102.429C296.763 101.424 297.945 101.533 299.128 102.418C297.946 102.421 296.765 102.425 295.584 102.429Z" fill="#15161B"/>
<path fill-rule="evenodd" clip-rule="evenodd" d="M251.23 138.223C251.264 137.75 251.297 137.277 251.333 136.805C251.301 137.278 251.265 137.751 251.23 138.223Z" fill="#15161B"/>
<path fill-rule="evenodd" clip-rule="evenodd" d="M457.537 124.755C457.547 125.702 457.556 126.648 457.567 127.59C457.558 126.641 457.548 125.698 457.537 124.755Z" fill="#15161B"/>
<path fill-rule="evenodd" clip-rule="evenodd" d="M144.803 272.923C146.358 273.45 149.487 275.043 151.299 274.832C152.75 274.662 153.946 272.899 155.345 272.901C159.112 272.906 158.414 277.261 156.593 279.599C151.67 285.923 140.67 279.066 144.803 272.923Z" fill="#15161B"/>
<path fill-rule="evenodd" clip-rule="evenodd" d="M160.18 250.218C165.318 251.544 162.759 262.845 158.44 263.622C153.355 264.538 152.469 255.349 153.473 252.027C156.09 253.582 154.47 259.13 157.768 257.597C159.865 256.62 159.546 252.108 160.18 250.218Z" fill="#15161B"/>
</svg>
