<svg width="94" height="27" viewBox="0 0 94 27" fill="none" xmlns="http://www.w3.org/2000/svg">
<path d="M24.197 0.727999L15.449 17.648V26H9.29297V17.648L0.544969 0.727999H7.52897L12.425 11.312L17.285 0.727999H24.197ZM38.6293 26.252C36.2533 26.252 34.0693 25.7 32.0773 24.596C30.1093 23.492 28.5373 21.956 27.3613 19.988C26.2093 17.996 25.6333 15.764 25.6333 13.292C25.6333 10.82 26.2093 8.6 27.3613 6.632C28.5373 4.664 30.1093 3.128 32.0773 2.024C34.0693 0.92 36.2533 0.368 38.6293 0.368C41.0053 0.368 43.1773 0.92 45.1453 2.024C47.1373 3.128 48.6973 4.664 49.8253 6.632C50.9773 8.6 51.5533 10.82 51.5533 13.292C51.5533 15.764 50.9773 17.996 49.8253 19.988C48.6733 21.956 47.1133 23.492 45.1453 24.596C43.1773 25.7 41.0053 26.252 38.6293 26.252ZM38.6293 20.636C40.6453 20.636 42.2533 19.964 43.4533 18.62C44.6773 17.276 45.2893 15.5 45.2893 13.292C45.2893 11.06 44.6773 9.284 43.4533 7.964C42.2533 6.62 40.6453 5.948 38.6293 5.948C36.5893 5.948 34.9573 6.608 33.7333 7.928C32.5333 9.248 31.9333 11.036 31.9333 13.292C31.9333 15.524 32.5333 17.312 33.7333 18.656C34.9573 19.976 36.5893 20.636 38.6293 20.636ZM67.8661 26L62.6101 16.46H61.1341V26H54.9781V0.727999H65.3101C67.3021 0.727999 68.9941 1.076 70.3861 1.772C71.8021 2.468 72.8581 3.428 73.5541 4.652C74.2501 5.852 74.5981 7.196 74.5981 8.684C74.5981 10.364 74.1181 11.864 73.1581 13.184C72.2221 14.504 70.8301 15.44 68.9821 15.992L74.8141 26H67.8661ZM61.1341 12.104H64.9501C66.0781 12.104 66.9181 11.828 67.4701 11.276C68.0461 10.724 68.3341 9.944 68.3341 8.936C68.3341 7.976 68.0461 7.22 67.4701 6.668C66.9181 6.116 66.0781 5.84 64.9501 5.84H61.1341V12.104ZM84.6185 5.66V10.772H92.8625V15.524H84.6185V21.068H93.9425V26H78.4625V0.727999H93.9425V5.66H84.6185Z" fill="url(#paint0_linear)"/>
<defs>
<linearGradient id="paint0_linear" x1="5.69149e-07" y1="3" x2="92.5" y2="26" gradientUnits="userSpaceOnUse">
<stop stop-color="#00BBDD"/>
<stop offset="1" stop-color="#7A00FF"/>
</linearGradient>
</defs>
</svg>
